<?xml version="1.0" encoding="UTF-8"?>
<svg xmlns="http://www.w3.org/2000/svg" version="1.1" viewBox="0 0 386.05 294.685">
  <!-- Generator: Adobe Illustrator 28.7.1, SVG Export Plug-In . SVG Version: 1.2.0 Build 142)  -->
  <g>
    <g id="Layer_1">
      <text transform="translate(416.205 495.019)" fill="#fff" font-family="Adrianna-Extrabold, Adrianna" font-size="21.459" font-weight="700"><tspan x="0" y="0" letter-spacing=".2em">B</tspan><tspan x="19.206" y="0" letter-spacing=".199em">R</tspan><tspan x="39.334" y="0" letter-spacing=".2em">A</tspan><tspan x="61.179" y="0" letter-spacing=".199em">N</tspan><tspan x="82.552" y="0" letter-spacing=".2em">D G</tspan><tspan x="136.479" y="0" letter-spacing=".199em">UI</tspan><tspan x="169.332" y="0" letter-spacing=".2em">D</tspan><tspan x="189.954" y="0" letter-spacing=".199em">EL</tspan><tspan x="227.335" y="0" letter-spacing=".2em">I</tspan><tspan x="238.837" y="0" letter-spacing=".199em">N</tspan><tspan x="260.21" y="0" letter-spacing=".2em">E</tspan><tspan x="278.922" y="0">S</tspan></text>
      <text transform="translate(526.01 524.289)" fill="#fff" font-family="Adrianna-Extrabold, Adrianna" font-size="21.459" font-weight="700"><tspan x="0" y="0" letter-spacing=".2em">2</tspan><tspan x="19.764" y="0" letter-spacing=".199em">0</tspan><tspan x="40.986" y="0" letter-spacing=".132em">2</tspan><tspan x="59.291" y="0">4</tspan></text>
      <g>
        <path d="M48.083,292.955c-4.558,0-8.717-1.595-10.939-3.076l1.14-8.318c3.02,1.481,6.552,1.823,8.546,1.823,3.191,0,6.552-3.476,6.438-7.009-1.424,1.311-4.216,3.476-7.863,3.476-7.863,0-14.871-5.583-14.871-14.87,0-10.085,6.724-15.84,14.188-15.84,3.248,0,6.723,1.709,7.806,3.59v-2.963h11.11v28.032c0,9.401-7.977,15.155-15.555,15.155ZM47,259.168c-3.19,0-5.583,2.222-5.583,5.07,0,3.077,2.393,5.641,5.583,5.641,1.539,0,4.216-1.311,5.527-2.563v-6.609c-1.253-.912-3.875-1.538-5.527-1.538Z" fill="#5bcbf5"/>
        <path d="M83.176,279.964c-9.344,0-16.238-4.957-16.238-15.611,0-11.11,6.894-15.555,16.238-15.555,9.8,0,16.181,4.9,16.181,15.555,0,10.996-6.381,15.611-16.181,15.611ZM83.176,258.94c-3.362,0-5.356,2.279-5.356,5.356,0,2.849,1.994,5.412,5.356,5.412,3.418,0,5.47-2.45,5.47-5.412,0-3.021-2.051-5.356-5.47-5.356Z" fill="#5bcbf5"/>
        <path d="M119.01,279.964c-9.344,0-16.238-4.957-16.238-15.611,0-11.11,6.894-15.555,16.238-15.555,9.8,0,16.181,4.9,16.181,15.555,0,10.996-6.381,15.611-16.181,15.611ZM119.01,258.94c-3.362,0-5.356,2.279-5.356,5.356,0,2.849,1.994,5.412,5.356,5.412,3.418,0,5.47-2.45,5.47-5.412,0-3.021-2.051-5.356-5.47-5.356Z" fill="#5bcbf5"/>
        <path d="M160.941,277.172c-1.368,1.311-5.299,2.678-7.407,2.678-7.806,0-14.7-5.07-14.7-15.099,0-10.598,6.666-15.555,14.928-15.555,1.709,0,5.698.798,7.065,2.052v-15.384h11.11v43.416h-10.996v-2.108ZM155.472,259.054c-3.077,0-5.755,2.336-5.755,5.242,0,2.962,2.678,5.355,5.755,5.355,1.538,0,4.159-.912,5.355-1.994v-7.065c-1.196-.911-3.875-1.538-5.355-1.538Z" fill="#5bcbf5"/>
        <path d="M204.236,279.281c-2.336,0-4.956-.684-7.235-2.165-2.735-2.108-4.9-6.382-4.9-9.629v-9.345h-4.045v-8.375h4.045v-6.837l11.452-4.729v11.566h9.743v8.375h-9.743v8.091c0,1.083.285,1.823.627,2.165.342.229.741.342,1.367.342.456,0,3.248-.342,5.186-3.076l2.849,9.173c-2.564,2.963-6.211,4.444-9.345,4.444Z" fill="#5bcbf5"/>
        <path d="M238.875,262.473c0-2.108-1.311-4.388-2.963-4.388-1.425,0-3.988,1.311-5.47,2.564v18.631h-11.281v-43.416h11.281v16.808c1.823-1.709,5.071-3.589,8.375-3.589,7.351,0,11.054,4.729,11.054,11.225v18.973h-10.996v-16.808Z" fill="#5bcbf5"/>
        <path d="M255.564,249.767h10.997v29.514h-10.997v-29.514ZM261.148,245.95c-2.507,0-4.9-2.165-4.9-5.242,0-3.02,2.279-5.241,4.9-5.241,2.563,0,5.014,2.222,5.014,5.241,0,3.077-2.45,5.242-5.014,5.242Z" fill="#5bcbf5"/>
        <path d="M291.742,262.473c0-2.108-1.311-4.388-2.963-4.388-1.424,0-3.988,1.311-5.47,2.564v18.631h-11.281v-29.514h11.281v2.905c1.823-1.709,5.071-3.589,8.376-3.589,7.35,0,11.053,4.729,11.053,11.225v18.973h-10.996v-16.808Z" fill="#5bcbf5"/>
        <path d="M323.986,292.955c-4.558,0-8.717-1.595-10.939-3.076l1.14-8.318c3.02,1.481,6.552,1.823,8.547,1.823,3.19,0,6.552-3.476,6.438-7.009-1.424,1.311-4.216,3.476-7.862,3.476-7.863,0-14.871-5.583-14.871-14.87,0-10.085,6.724-15.84,14.188-15.84,3.247,0,6.723,1.709,7.806,3.59v-2.963h11.11v28.032c0,9.401-7.977,15.155-15.555,15.155ZM322.904,259.168c-3.191,0-5.584,2.222-5.584,5.07,0,3.077,2.393,5.641,5.584,5.641,1.538,0,4.216-1.311,5.526-2.563v-6.609c-1.254-.912-3.874-1.538-5.526-1.538Z" fill="#5bcbf5"/>
      </g>
      <g>
        <path d="M106.877,71.169c-1.368,1.31-5.299,2.678-7.407,2.678-7.806,0-14.7-5.071-14.7-15.099,0-10.598,6.666-15.555,14.928-15.555,1.709,0,5.698.798,7.065,2.051v-15.384h11.11v43.416h-10.996v-2.108ZM101.407,53.05c-3.077,0-5.755,2.336-5.755,5.242,0,2.963,2.678,5.356,5.755,5.356,1.538,0,4.159-.912,5.355-1.994v-7.065c-1.196-.911-3.875-1.538-5.355-1.538Z" fill="#5bcbf5"/>
        <path d="M137.639,73.96c-9.344,0-16.238-4.957-16.238-15.611,0-11.11,6.894-15.555,16.238-15.555,9.8,0,16.181,4.9,16.181,15.555,0,10.997-6.381,15.611-16.181,15.611ZM137.639,52.936c-3.362,0-5.356,2.279-5.356,5.355,0,2.849,1.994,5.413,5.356,5.413,3.418,0,5.47-2.45,5.47-5.413,0-3.02-2.051-5.355-5.47-5.355Z" fill="#5bcbf5"/>
      </g>
      <polygon points="370.108 114.039 368.054 114.039 368.054 106.798 365.103 106.798 365.103 104.927 373.046 104.927 373.046 106.798 370.108 106.798 370.108 114.039" fill="#fff"/>
      <polygon points="382.055 109.229 379.273 113.897 378.454 113.897 376.088 109.294 375.672 114.04 373.748 114.04 374.398 104.927 375.997 104.914 379.039 110.738 382.471 104.914 383.758 104.927 384.421 114.04 382.51 114.04 382.055 109.229" fill="#fff"/>
      <path d="M368.493,153.163v-1.203c-.006-4.177-.011-8.911-.871-14.197-.019-.767-.126-1.532-.313-2.274-4.721-18.451-12.697-30.213-26.612-39.276-.507-.507-1.072-.96-1.683-1.351-1.694-1.088-3.875-2.068-5.994-3.021l-.801-.356c-.613-.273-1.139-.503-1.394-.639-.468-.294-.96-.55-1.456-.759-10.507-4.44-22.029-4.624-28.77-4.2,7.511-5.284,13.917-11.297,18.584-17.456.272-.373.513-.745.6-.9,6.1-9.391,9.148-20.811,7.083-32.074-1.859-10.14-7.789-22.464-24.652-29.163-18.7-7.418-34.138.266-45.493,7.788-.266.179-.53.369-.779.572-3.138,2.544-6.17,5.723-9.015,9.455-2.926-3.719-6.031-6.871-9.234-9.375-.257-.2-.518-.386-.792-.56-11.485-7.33-27.049-14.751-45.611-7.022-16.745,6.986-23.791,25.094-24.453,31.561-1.137,11.098,1.702,20.724,8.046,30.169.199.287.395.558.572.779,4.152,5.303,9.729,10.56,16.168,15.249-.311.03-.633.063-.949.105-1.058.003-2.108.17-3.088.489,0,0-1.07.165-1.565.297-.423.112-.879.252-1.364.415-.694.224-1.318.454-1.895.693-.683.244-1.884.807-1.884.807-1.201.53-2.464,1.129-3.763,1.786-2.898-2.16-6.762-3.107-11.51-2.839l-4.664.224c-.16.007-.32.018-.476.033-3.853.366-7.117.685-9.875.962l-.711.045c-1.339.081-2.764.175-4.2.357l-.938.108c-2.744.308-4.821.569-6.605,1.143-5.742,1.859-9.183,6.521-8.978,12.13-.132,2.431-.275,5.967-.423,10.522,0,0-.692-.778-.994-1.162-.079-.098-.16-.193-.244-.291-.445-.518-.859-1.088-1.262-1.638l-.16-.217c-.792-1.074-1.571-2.118-2.425-3.105-.151-.176-.31-.347-.473-.512-3.071-3.1-7.584-7.273-11.647-9.564-1.033-.584-2.116-1.098-3.141-1.574l-.283-.131c-.515-.238-1.002-.464-1.464-.728-.174-.098-.347-.193-.524-.28-.63-.315-1.22-.664-1.792-1l-.184-.11c-1.423-.836-3.033-1.784-5.071-2.6-2.077-.836-13.047-4.104-21.099-4.104-.666,0-2.461.086-5.336.257l-.781.048c-1.19.071-2.235.134-2.646.144-8.45,0-15.819.869-24.325,5.11-.305.154-.601.32-.881.497-1.207.711-6.941,3.772-8.417,4.454-.856.315-1.671.746-2.421,1.284l-.619.439c-1.394.994-2.976,2.121-4.625,3.718-1.243,1.103-2.198,2.214-2.962,3.104l-.152.176c-.173.2-.355.41-.518.591-.663.442-1.178.851-1.565,1.155l-.109.091c-.227.154-.448.316-.663.488-3.346,2.677-4.346,4.103-9.147,10.962l-.389.557c-.331.495-.672.989-1.022,1.488-1.171,1.68-2.495,3.583-3.651,5.881-.269.537-.49,1.097-.653,1.645-.151.429-.448,1.203-.786,2.094l-.269.705c-1.658,4.368-1.991,5.295-2.215,6.198-.512,2.063-1.192,8.586-1.192,11.442,0,.658.14,2.569.26,4.007l.09,1.047c.05.585.092,1.068.103,1.243,0,.502-.059,1.001-.123,1.529l-.048.431c-.126,1.139-.282,2.557-.282,4.115,0,1.427,0,5.767,3.334,16.035,1.123,3.457,2.089,6.445,3.295,8.811,1.417,3.673,3.57,6.69,5.278,8.897,1.459,1.995,3.021,3.604,4.34,4.918,1.195,1.537,4.09,5.339,4.684,6.125.277.364.582.718.912,1.051,4.516,4.527,18.403,12.278,26.419,14.003.104.022.207.042.305.059,4.326.793,14.828,2.636,18.915,2.636,1.252,0,14.005-.541,18.232-1.252,2.285-.357,7.571-1.79,10.64-3.221.901-.384,1.794-.838,2.858-1.401l.616-.331c.322-.112.644-.219.969-.327,1.383-.459,3.105-1.033,4.964-1.967l.327-.224c2.489-1.247,5.97-3.54,10.617-6.997.395-.296.773-.621,1.12-.968,1.576-1.578,4.16-4.906,7.786-9.751.023,4.318.07,7.586.146,9.945-.009.245-.009.493-.003.745.216,6.565,5,13.373,15.183,13.786.535.059,1.078.077,1.61.048,1.887-.093,5.18-.063,7.831-.04,1.627.013,3.167.021,4.359.014.451.062.916.093,1.442.093,2.814-.016,5.314-.053,7.643-.116.345-.01.686-.037,1-.073,1.153.078,3.083.21,5.384-.322,13.313,1.424,13.301-17.656,13.712-20.534.399-2.794,2.795-2.794,3.194,1.198.614,6.143,3.992,18.764,13.699,19.441,4.133.288,7.413.038,7.413.038,0,0,.554-.012.832-.002l.291.009c.434.011.865.019,1.299.019h1.05c1.036,0,1.926-.005,2.315.017.35.041.7.062,1.053.066,2.66.028,6.336.045,8.856-.035.929.199,1.873.264,2.797.204.974-.064,5.35-.075,9.023-.061l.364-.005c7.271-.222,12.787-5.994,13.117-13.728.069-2.579.686-3.814,4.083-1.961,0,0,3.263,2.353,4.323,3.087,2.132,1.478,5.207,3.156,7.267,4.471l.429.27c.473.299.898.568,1.195.792.776.606,1.635,1.096,2.559,1.457,1.058.413,2.243.919,3.508,1.458l.182.077c5.084,2.164,11.409,4.857,17.485,5.658,2.015.383,3.578.522,4.012.556.145.009.288.018.428.022,1.484.048,1.842.127,2.223.211,1.313.296,2.565.492,4.413.492.674,0,1.405-.025,2.237-.076.319-.019.792-.08,1.103-.129.842-.131,4.39-.48,5.274-.518.602-.025,1.207-.105,1.806-.238,1.283-.289,2.164-.477,2.985-.65l2.31-.495.084-.021c1.556-.221,2.914-.586,3.819-.83,4.42-1.177,8.802-3.025,12.666-4.657l.63-.265c2.351-.978,5.462-2.902,9.407-5.486l.311-.204c2.853-1.838,5.753-4.55,8.43-7.18.4-.319.775-.662,1.111-1.021,5.544-5.902,8.12-11.563,9.897-16.289,2.055-4.249,1.91-8.928-.406-12.841-1.523-2.576-3.659-4.239-5.392-5.252,5.496-2.624,8.276-7.379,8.265-14.149" fill="#fff"/>
      <path d="M316.165,39.413c-1.354-7.731-7.213-18.66-18.647-23.038-13.608-5.212-25.025-.549-36.139,6.811-6.624,5.365-11.874,13.466-15.255,21.489.002.004.005.009.007.018-2.192,5.203-3.483,10.388-4.073,14.739-1.98,14.596,2.59,35.525,4.355,43.83.122.062.249.09.315.052,0,0-.107.037.308-.109.711-.252,1.902-1.244,3.271-3.777,1.714-2.217,5.18-4.224,9.737-6.176,4.476-1.943,9.422-3.323,14.067-4.832,12.609-4.082,27.526-14.277,35.933-25.367.1-.138.178-.279.265-.421,4.718-7.26,6.875-15.512,5.856-23.219" fill="#5bcbf5"/>
      <path d="M242.058,59.432c.573-4.224,1.814-9.234,3.89-14.282.06-.154.117-.308.18-.463-3.514-7.986-8.908-16.032-15.644-21.301-11.233-7.168-22.785-11.808-36.235-6.208-10.519,4.387-17.902,15.643-18.505,24.765-.397,6.002,2.015,15.066,6.468,21.698.101.142.188.279.289.407,8.58,10.958,23.639,20.901,36.311,24.773,4.659,1.431,9.624,2.729,14.136,4.599,4.599,1.875,8.091,3.827,9.838,6.016,1.616,2.854,3.098,3.622,3.624,3.81-1.767-8.315-6.331-29.226-4.352-43.814" fill="#001b74"/>
      <path d="M52.073,210.617c-6.3-1.355-18.443-8.32-21.359-11.245-.678-.898-4.277-5.618-5.17-6.74-1.355-1.351-2.701-2.702-3.832-4.272-1.57-2.024-3.141-4.277-4.038-6.744-.225,0-5.843-14.391-5.843-20.907,0-2.028.453-4.048.453-6.076,0-.897-.453-5.394-.453-6.296,0-2.468.669-8.086.893-8.983.224-.902,3.146-8.324,3.146-8.544,1.131-2.253,2.701-4.272,4.047-6.296,4.725-6.744,5.179-7.417,7.427-9.217.668-.448,1.346-1.121,2.239-1.575,1.57-1.35,2.701-3.15,4.276-4.496,1.356-1.346,2.556-2.48,4.272-3.37.591-.306,9.666-4.945,10.334-5.398,6.749-3.365,12.596-4.043,19.789-4.043,1.118,0,7.418-.449,8.764-.449,6.52,0,16.191,2.921,17.308,3.37,2.252.902,4.047,2.248,6.3,3.375,1.571.902,3.37,1.575,4.95,2.468,3.598,2.028,8.314,6.744,9.432,7.87,1.355,1.571,2.477,3.366,3.832,4.945.893,1.117,1.786,2.024,2.692,3.146.902.897,1.571,2.028,2.249,3.15.444.444,7.646,14.611,7.646,26.749,0,0-.907,14.386-1.346,17.087-.678,2.922-2.253,5.843-3.384,8.764-2.472,6.52-2.688,6.969-4.949,10.343-2.015,2.697-7.633,10.339-9.433,12.139-1.808,1.346-9.212,6.295-9.441,6.295-1.795.902-3.594,1.351-5.394,2.024-1.355.678-2.477,1.346-3.594,1.8-1.808.897-6.525,2.248-8.095,2.467-2.024.454-14.62,1.127-16.634,1.127-3.604,0-17.084-2.468-17.084-2.468M92.302,141.592c-1.117-1.566-6.511-6.516-7.189-6.964-.453-.454-4.945-2.697-7.193-3.15-.224,0-7.193-.898-7.417-.898-3.155,0-9.666,2.693-9.895,2.693-4.725,2.257-5.394,2.93-7.417,5.402-2.693,3.375-6.521,8.091-6.521,14.84,0,7.193,1.356,10.563,2.688,13.484,1.36,3.375,3.155,7.418,11.026,11.465,3.145,1.571,10.119,2.253,10.572,2.253,9.212,0,18.429-8.773,19.775-11.016.902-1.351,1.149-2.723,1.846-4.059.676-1.296,1.309-2.466,1.524-3.588.454-1.346,1.356-7.193,1.356-8.992,0-2.697-1.8-9.217-3.155-11.47" fill="#001b74"/>
      <path d="M240.734,204.313c-.019-1.8-.037-3.531-.056-5.242-.04-3.421-.071-6.767.007-10.476-.075-.843-.197-2.808-.209-2.827-.178-8.168-.201-16.764-.226-17.796-.041-1.799.129-4.407.157-6.328l-.02-.041c-.019-3.483.019-4.802.008-6.823.001-2.017.008-3.825-.132-6.43-.22-2.592-.688-5.672-.85-7.551.013.017-.006-.751-.263-3.026-.082-.314-.272-1.37-.254-1.326-.532-2.859-1.98-8.773-1.93-9.163-2.272-8.446-5.297-14.22-10.031-19.712-.482-.668-1.338-1.722-1.338-1.722.077-.031-6.454-5.878-12.684-8.433l-1.842-.554c0,.036-.379-.084-.897-.205-.539-.111-1.057-.342-1.565-.446-.479-.175-.577-.138-.858-.258-.281-.118-.867-.346-2.636-.558-2.762-.677-10.266-.123-11.102.022-1.746.236-2.773.206-4.115.486,0,0-1.201.179-2.259.469-1.285.344-2.707.818-3.003.965-1.003.19-8.56,4.178-10.185,5.535-.346.289-1.97.937-2.456.943-.195-.807-.374-2.487-.467-2.824-.093-.338-.517-1.154-.517-1.154-.289-1.534-1.55-2.623-5.819-2.395-1.6.085-3.111.149-4.721.227-3.912.371-7.215.694-10.008.976-1.105.078-2.811.143-4.465.352-1.314.167-4.486.452-5.685.84-2.358.762-1.935,2.157-1.935,2.456-.198,3.359-.439,9.799-.733,20.461,0,0-.179,14.703.049,21.101-.279,1.011-.029,7.622-.119,9.794l-.023-.205c.215,5.661-.178,11.658.014,17.115-.022-.211-.177,8.039-.168,8.125.042,9.494-.092,22.229.167,28.313l.014.101c.028.724-.025,3.908,5.715,4.04.208.022.589.026.545.035,3.717-.18,10.745.043,13.759-.047,0,0,6.727-.102,8.686-.099.98.004,2.128.231,3.308-.043,1.26-.291,2.184-1.856,2.142-3.187.044-5.103-.433-13.522-.327-17.204.176-1.418.389-5.494.288-9.868,0,0,.296-11.447.092-15.422-.04-6.152.67-12.937.67-12.937.306-2.697-.015-1.961.462-4.94.06.193.432-1.879.485-1.994.323-1.702.584-3.33,1.162-4.867.575-1.538,1.38-3.034,2.578-4.274,2.328-2.54,6.121-4.029,10.368-4.137.91-.139,2.458-.194,3.9.083.734.073,1.413.319,2.022.444.591.187,1.083.366,1.421.447.097.061,2.037.981,3.202,1.955,1.333.637,4.9,5.808,5.484,8.109.49,1.429.743,2.927.995,4.481l.576,5.016c.211,3.424.417,5.242.496,8.875-.095,4.608-.376,11.209-.533,17.114.045.334.022,1.39.01,3.027l-.322,9.808c.103,5.622.145,8.116.02,11.153,0,0-.277,2.139-.056,4.63,0,0,.018.306-.001.536-.019.231.811,3.33,4.427,3.062,1.049-.078,2.135,0,3.153.001,2.037-.003,3.811-.001,4.542.082,0,0,9.383-.019,9.294-.041.116.029,1.538.133,1.672.133,1.981-.128,9.652.015,9.652.015,2.602-.078,3.219-2.566,3.278-4.006-.003-.944-.007-1.864-.01-2.766" fill="#001b74"/>
      <path d="M352.26,176.003c-1.299-.533-14.542-3.801-18.064-4.76-6.597-2.496-7.667,1.07-8.804,1.993-3.604,4.835-7.507,7.034-12.057,8.526-1.426.179-4.616.643-4.256.637-1.756.09-6.027.124-7.508-.428-7.032-.454-15.249-4.813-18.137-9.192-1.441-1.271-2.907-4.755-3.386-6.381.282-.079,4.139-.441,4.4-.412,11.901-1.374,28.597-1.915,40.115-3.75,8.711-.937,14.766-.79,21.981-2.024,7.176-.266,10.845-.768,10.837-6.382-.013-4.822.084-9.85-1.048-15.539l-.03-.193c-4.234-16.553-10.819-26.227-25.107-34.606.19.06-1.123-.616-.099-.052-1.944-1.247-5.185-2.446-6.635-3.359-10.615-4.484-24.632-4.261-33.899-2.086-4.828,1.17-13.169,3.672-16.238,5.802l-.158.054c-4.685,2.673-10.306,5.957-13.542,10.736-3.205,3.918-8.871,10.837-10.367,14.545-3.835,9.711-4.557,16.331-5.034,25.455.094,1.739.447,6.22.426,6.522,1.124,9.046,4.117,19.055,9.847,26.741,1.576,2.292,3.061,4.901,4.976,7.354,2.857,2.654,4.383,3.665,6.966,5.936,1.394,1.624,5.408,3.779,7.006,5.023,5.085,1.984,12.862,5.886,19.1,6.622,1.783.357,3.148.46,3.148.46,5.197.167,3.516.912,7.924.64.992-.178,5.276-.602,6.574-.656,2.465-.555,3.311-.653,5.163-1.059.357-.059,1.431-.247,3.649-.841,3.967-1.057,8.302-2.926,12.014-4.488,2.122-.882,6.773-3.974,8.115-4.849,2.622-1.687,6.017-5.097,7.898-6.954-.087.113-.168.231-.26.339,4.057-4.32,6.137-8.412,8.002-13.465,2.254-3.949-2.638-5.922-3.512-5.909M290.876,125.972c.374-.185,1.219-.629,2.365-1.03,3.028-1.241,5.234-1.627,8.656-1.902.401-.032,1.901-.211,4.106-.043,3.288.396,9.034,2.649,12.731,5.699.971.597,2.83,2.499,3.823,3.808,1.437,1.162,3.317,6.57-2.507,5.747-2.172-.447-4.301.601-6.228.355-1.701.236-2.63.194-3.464.318-.56.087-5.272-.249-7.278.622l-.118.027c-1.963.655-5.698.677-5.609.685,0,0-.347-.014-.251-.022-8.159.87-17.893,3.549-15.929-1.859.191-.824,1.627-8.703,9.703-12.405" fill="#001b74"/>
    </g>
  </g>
</svg>