<svg width="1324" height="847" viewBox="0 0 1324 847" fill="none" xmlns="http://www.w3.org/2000/svg">
<g clip-path="url(#clip0_1_3)">
<path d="M185.4 843.636C184.064 845.014 181.896 845.018 180.525 843.675V843.675C179.135 842.312 179.088 840.079 180.441 838.679C190.257 828.52 226.624 790.764 234 782C238.7 776.4 252.1 769.1 267.5 760.7C282 752.8 298.4 743.9 306.6 736.5C323.1 721.8 496.2 487.5 505.8 470C510.3 461.8 514.6 448.7 519.5 433.6C524.9 417 531.1 398.1 539.7 378.5C553.1 347.8 569.2 321.6 576.9 309C578.8 306 580.2 303.6 581 302.2C583.4 298 593.6 284.5 603.4 271.4C610.9 261.5 618 252.2 620.7 248.1C624 243.2 626.9 238 630.2 232C633.1 226.8 636.3 220.9 640.4 214.2C645.5 205.9 652 202 658.3 198.3C663.6 195.1 668.6 192.1 673.1 186.5C676.7 181.8 678.6 179.6 679.6 178.4V178.4C679.969 177.847 680.268 177.27 680.466 176.636C680.631 176.107 680.87 175.39 681.2 174.4C682.5 170.8 686.1 165 689.9 158.9C693.3 153.3 696.9 147.4 698.7 143.4C701.1 138.1 708.4 122.1 724.9 107.4C732 101.1 732.9 96.8 734 91C734.9 86.3 736.1 80.4 740.9 72.6C747.9 61.3 760.6 54.3 772.9 47.6C779.8 43.8 786.3 40.3 791.5 36.1C802 27.8 813 27.9 821.9 28C824.7 28 827.3 28.1 829.6 27.8C831.2 27.6 832.4 27.3 833.4 26.9C837.606 25.1473 838.895 14.1023 838.61 5.47504C838.547 3.54784 839.946 1.84537 841.865 1.6535V1.6535C843.811 1.4589 845.547 2.88416 845.632 4.83804C845.978 12.8048 845.544 29.3885 836.1 33.4C834.5 34.1 832.6 34.5 830.3 34.8C827.6 35.1 824.8 35.1 821.8 35C813.6 34.9 804.3 34.8 795.8 41.6C790.1 46.1 783 50 776.2 53.7C764.7 60 752.8 66.5 746.8 76.3C742.6 83 741.7 87.8 740.8 92.4C739.6 98.8 738.4 104.8 729.5 112.7C715.7 125 708.9 137.8 705 146.3C703 150.7 699.3 156.8 695.8 162.6C692.4 168.2 688.8 174 687.7 177C687.2 178.4 687 179 686.9 179.5C686.5 181.1 686.1 181.6 684.8 183C683.8 184.2 682 186.3 678.4 190.9C673.2 197.6 667.3 201.1 661.7 204.4C655.9 207.9 650.4 211.1 646.2 218C642.2 224.6 639 230.4 636.1 235.5C632.7 241.6 629.8 246.9 626.3 252.1C623.5 256.3 616.3 265.7 608.8 275.7C599.5 288 589 301.8 586.9 305.6C586.1 307.1 584.6 309.4 582.7 312.7C575.1 325.2 559.2 351.1 545.9 381.3C537.5 400.6 531.3 419.3 526 435.8C520.9 451.3 516.6 464.6 511.8 473.4C502.2 491 327.8 727 311.2 741.8C302.4 749.7 286.3 758.4 270.8 766.9C257.2 774.3 243.2 782 239.3 786.6C231.715 795.597 195.266 833.456 185.4 843.636Z" fill="black"/>
<path d="M1218.5 314.4C1194.8 314.4 1175.5 313.8 1171.3 312C1168.1 310.6 1165.5 309 1162.8 307.2C1155.7 302.6 1147.7 297.4 1122.3 294C1104.9 291.7 1100.1 292.1 1096.5 292.3C1092.1 292.6 1089 292.7 1076.1 290C1063.2 287.3 1055.2 283.1 1048.7 279.7C1042.1 276.3 1037.8 274 1031.5 275C1027.3 275.7 1022.3 278.9 1016.4 282.6C1004.2 290.3 989 299.9 969.8 294.4C953.4 289.8 944.5 283.1 936.6 277.2C931.3 273.2 926.7 269.8 920.6 267.7C913.3 265.2 907.6 264.7 902.5 264.4C896.9 264 891.5 263.6 885.9 260.3C882 258 879.1 254.9 876.4 251.9C871.9 247 867.6 242.3 858.7 241C854.5 240.4 851 240.5 847.8 240.5C839.3 240.7 831.9 240.9 822.3 226.8C819.2 222.3 816.5 218.9 814.1 215.8C807.1 207 803 201.6 804.3 188.3C805.1 180.2 809.2 171.6 813.1 163.2C817.3 154.2 821.7 145 821.7 136.9C821.7 130.2 820.9 125 820.2 120.4C819.2 113.9 818.3 108.2 820.3 101.1C821.8 95.9 824.1 92.7 826.1 89.9C828.6 86.3 830.5 83.8 830.5 77.6C830.5 67.8267 828.038 44.7948 826.976 35.5943C826.743 33.5779 828.397 31.4832 830.414 31.2527V31.2527C832.132 31.0563 833.669 32.2514 833.867 33.9696C834.862 42.6254 837.5 67.0192 837.5 77.6C837.5 86.1 834.6 90.1 831.8 94C830 96.6 828.2 99 827.1 103.1C825.5 108.7 826.2 113.2 827.2 119.4C828 124.2 828.8 129.6 828.8 137C828.8 146.6 824.1 156.6 819.5 166.3C815.7 174.4 812 182.1 811.3 189.1C810.3 199.6 813 203.1 819.7 211.6C822.2 214.7 825 218.3 828.1 223C835.5 233.9 839.6 233.8 847.7 233.6C851.1 233.5 855 233.4 859.8 234.1C871.1 235.8 876.7 241.9 881.6 247.2C884.1 250 886.5 252.6 889.5 254.3C893.7 256.7 897.8 257 903 257.4C908.2 257.8 914.7 258.3 922.9 261.1C930 263.6 935.2 267.5 940.8 271.6C948.2 277.1 956.7 283.4 971.8 287.7C988 292.3 1001.1 284 1012.7 276.7C1019.2 272.6 1024.8 269.1 1030.4 268.1C1039 266.7 1045 269.8 1052 273.5C1058.1 276.7 1065.6 280.6 1077.6 283.2C1090.2 285.9 1092.5 285.7 1096 285.4C1099.8 285.1 1105.1 284.7 1123.2 287.1C1150.1 290.7 1159.2 296.6 1166.5 301.3C1169 302.9 1171.2 304.4 1173.9 305.5C1181.24 308.631 1265.45 307.071 1319.19 305.316C1321.14 305.253 1322.75 306.784 1322.8 308.732V308.732C1322.86 310.655 1321.37 312.264 1319.45 312.337C1301.65 313.012 1254.91 314.4 1218.5 314.4Z" fill="black"/>
<path d="M860.1 437.6C857.6 437.6 855.1 437.5 852.7 437.3C839 436.1 836.1 430.3 833.3 424.7C831.9 421.9 830.6 419.2 827.7 416.6C823.9 413.1 822.5 413.4 819.6 414C816.6 414.6 812.5 415.5 806.2 412.4C801.4 410 791.7 407.8 782.4 405.7C767.9 402.4 758.8 400.2 755 396.8C748.9 391.5 720.2 376.8 702.4 370.6C686 364.9 671.8 342.8 659.2 323.2C656.8 319.5 654.6 316 652.4 312.8C640.6 295.2 642 276.8 642.8 266.9C643 265 643.1 263.3 643.1 262.1C643.1 259 633.4 253 624.8 249.8L627.2 243.2C632.6 245.2 650 252.5 650 262.1C650 263.6 649.9 265.4 649.7 267.5C648.9 277.2 647.6 293.4 658.1 309C660.3 312.3 662.6 315.8 665 319.5C676.4 337.2 690.6 359.2 704.6 364.1C723.4 370.6 752.9 385.9 759.6 391.7C762.4 394.1 774.3 396.8 783.9 399C794.1 401.3 803.7 403.5 809.2 406.2C813.3 408.2 815.6 407.8 818.1 407.2C822.5 406.3 826.4 406 832.4 411.5C836.2 415 838.1 418.7 839.5 421.6C841.9 426.5 843.4 429.5 853.3 430.3C869 431.7 886.3 428.2 907.6 419.5C920.8 414.1 937.1 410.1 946.3 408.1C944.8 406.2 943.6 403.7 943.6 400.6C943.6 397 946.2 394.3 948.8 391.6C953.3 386.8 955.7 383.8 951.5 378.2C942.1 365.6 932.3 344.7 935.8 327.1C939.2 310.1 967.6 289.2 968.8 288.3L972.9 293.9C965.3 299.5 945 316.6 942.6 328.4C939.7 342.7 947.8 361.6 957 373.9C965 384.5 958 391.9 953.8 396.3C952.6 397.6 950.6 399.7 950.6 400.5C950.6 403.6 953.8 405.8 955.1 406.5C956.5 407.3 957.3 408.9 957 410.4C956.7 412 955.5 413.2 954 413.5C949.7 414.3 927.1 418.8 910.2 425.8C891.1 433.8 875 437.6 860.1 437.6Z" fill="black"/>
<path d="M1280.3 633.7C1260.2 633.7 1253 630.3 1239.8 624C1233.4 620.9 1225.3 617.1 1213.4 612.6C1197.5 606.6 1189 599.2 1180.7 592.1C1169 581.9 1156.8 571.4 1121.4 564.6C1066.5 554 1027.9 594 1013.3 609C1012.2 610.1 1011.3 611 1010.6 611.8C998.9 623.5 954.7 639.9 908.3 631C869.4 623.5 833.8 620.7 788.7 617.1C781.4 616.5 773.7 615.9 765.8 615.2C736.2 612.8 712.5 602.2 689.6 592C666.6 581.7 644.9 572.1 617.9 570.1C585.8 567.8 550.3 578.8 519 588.6C496.9 595.5 477.8 601.4 463.1 601.8C437 602.4 423.6 598.6 412.8 595.6C409 594.5 405.7 593.6 402.3 593C388.8 590.6 291.2 550.4 284.7 547.8C279.9 546.5 194.7 523.2 170.4 517.8C153.4 514.1 143.7 516.7 134.4 519.1C130.2 520.2 126.2 521.3 121.7 521.8C113.7 522.7 103.1 520.6 90.8 518.2C80.3 516.1 68.3 513.8 56.2 513.1C34.2328 511.866 11.1825 501.087 3.03274 496.971C1.36398 496.128 0.760264 494.036 1.67047 492.403V492.403C2.60259 490.731 4.82236 490.084 6.53136 490.947C14.5153 494.979 36.4116 505.095 56.5 506.3C69.1 507.1 81.3 509.4 92 511.5C103.7 513.8 113.8 515.8 120.8 515C124.8 514.6 128.5 513.6 132.4 512.5C142.1 509.9 153.1 507 171.7 511.1C196.8 516.6 285.7 541 286.6 541.2V541.2C286.866 541.267 287.118 541.349 287.372 541.453C323.186 556.196 393.036 584.406 403.4 586.2C407.1 586.9 410.8 587.9 414.6 588.9C424.9 591.8 437.8 595.4 462.9 594.8C476.6 594.5 495.2 588.7 516.8 582C548.7 572.1 584.8 560.8 618.3 563.2C646.5 565.2 669.8 575.6 692.3 585.6C714.7 595.6 737.9 605.9 766.2 608.3C774.2 609 781.8 609.6 789.1 610.2C834.4 613.8 870.2 616.7 909.5 624.2C952.9 632.5 995.1 617.4 1005.5 607C1006.2 606.3 1007.1 605.3 1008.1 604.3C1021.9 590 1063.9 546.5 1122.5 557.9C1159.8 565.1 1172.6 576.3 1185.1 587C1193.2 594.1 1200.9 600.7 1215.7 606.2C1227.9 610.8 1236.1 614.7 1242.7 617.8C1256.5 624.3 1262.7 627.3 1285.6 626.7L1316.91 625.89C1318.84 625.84 1320.44 627.361 1320.5 629.291V629.291C1320.56 631.227 1319.03 632.841 1317.09 632.891L1285.8 633.7C1283.9 633.7 1282.1 633.7 1280.3 633.7Z" fill="black"/>
<path d="M216.3 523.8L214.7 521.3C214.9 521.2 235.9 507.7 247.3 495.8C252 490.8 254.1 486.8 256.1 482.9C258.9 477.4 261.7 471.8 271.8 464C281.9 456.1 307.2 446.7 331.7 437.6C348.1 431.5 363.6 425.8 371.7 421.4C378.6 417.7 382.5 414.6 386.6 411.4C394.2 405.4 402.1 399.3 429.3 388.9C444.7 383.1 451.9 379.6 456.2 377.5C462.6 374.4 462.9 374.3 471.9 374.8C473.5 374.9 475.5 375 477.8 375.1C501.3 376.1 542.5 378.5 543 378.5L542.8 381.5C542.4 381.5 501.1 379.1 477.7 378.1C475.3 378 473.4 377.9 471.7 377.8C463.3 377.3 463.3 377.3 457.5 380.2C453.1 382.3 445.8 385.9 430.3 391.7C403.5 401.9 395.8 407.9 388.4 413.7C384.4 416.9 380.2 420.2 373 424C364.7 428.5 349.1 434.3 332.6 440.4C309.5 449 283.3 458.7 273.5 466.3C264 473.7 261.4 478.8 258.7 484.2C256.6 488.3 254.5 492.5 249.4 497.8C237.8 510 217.1 523.2 216.3 523.8Z" fill="black"/>
<path d="M661.8 201.5L608.4 183.8C605.8 182.9 545 162.6 534.5 157.9C526.1 154.1 515.5 145.4 507.7 139.1C505.5 137.3 503.6 135.7 502 134.6C498.4 131.8 493.7 130.7 489.2 129.7C485.4 128.8 481.9 128 478.9 126.3C475.8 124.5 474.4 122.5 472.9 120.4C471.2 118 469.3 115.3 464.1 112C459.1 108.8 448.9 106.4 438.2 103.8C427.9 101.3 417.2 98.8 408.9 95.2C391.8 87.7 378.2 63.9 377.7 62.9L380.3 61.4C380.4 61.6 393.9 85.3 410.1 92.4C418.1 95.9 428.6 98.4 438.8 100.8C449.8 103.4 460.2 105.9 465.6 109.3C471.4 112.9 473.5 116 475.3 118.5C476.7 120.5 477.8 122 480.3 123.5C482.9 125 486.2 125.8 489.7 126.6C494.5 127.7 499.5 128.9 503.6 132.1C505.2 133.3 507.1 134.9 509.3 136.7C517 143 527.5 151.5 535.4 155.1C545.8 159.8 608.4 180.7 609 180.9L662.3 198.6L661.8 201.5Z" fill="black"/>
<path d="M468.3 528.9C468.2 528.5 453.8 487.2 447.6 480C443.6 475.3 434.9 474 427.3 472.8C423.3 472.2 419.5 471.6 416.9 470.6C412.3 468.8 411.5 465.8 410.7 463.1C410.2 461.2 409.7 459.5 408.1 458.2C403.5 454.4 398.7 437.9 397.4 432.9C395.6 426.1 391.1 411.2 391 411L392 410.7C392 410.9 396.5 425.8 398.4 432.6C401.1 442.7 405.3 454.6 408.8 457.4C410.7 458.9 411.2 460.9 411.8 462.8C412.6 465.5 413.3 468.1 417.4 469.7C419.9 470.7 423.6 471.2 427.6 471.8C435.4 473 444.2 474.3 448.5 479.3C454.8 486.7 468.8 526.8 469.4 528.6L468.3 528.9Z" fill="black"/>
<path d="M771.9 276.8C769.6 276.8 768.4 276.1 766.9 275C766.2 274.5 765.3 273.9 764.1 273.3C762.1 272.3 760.9 271.5 759.4 270.6C757.7 269.5 755.6 268.1 751.2 265.8C744 261.9 738.1 253.9 735.6 250.5C735.2 250 734.9 249.6 734.7 249.3C732.8 247 732.8 242 734.6 239.2C735.7 237.5 739 227.3 741 220.9L741.1 220.5L741.5 220.3C741.9 220.1 752.3 214.5 755.3 213.5C758 212.6 762.2 213.2 767.6 213.9C768.6 214 769.7 214.2 770.7 214.3C778.2 215.2 785.3 218.5 791.8 224C795.2 226.9 795.7 227.9 795.6 228.9C795.5 229.8 794.8 230.1 794.3 230.4C793.7 230.7 793.7 230.8 793.7 231C793.9 234 792.5 242.8 790.7 248C789.9 250.2 789.9 253.1 789.9 256.5C789.9 260.5 789.9 265.1 788.6 270.1C786.7 277.4 783.2 277 779.5 276.6C778 276.4 776.5 276.3 774.8 276.6C773.7 276.7 772.8 276.8 771.9 276.8ZM742.9 221.8C742 224.7 737.9 238 736.4 240.3C735.1 242.3 735 246.4 736.3 248C736.5 248.3 736.8 248.7 737.2 249.2C739.6 252.5 745.4 260.3 752.2 263.9C756.6 266.3 758.8 267.7 760.5 268.8C761.9 269.7 763.1 270.5 765 271.4C766.4 272.1 767.3 272.7 768 273.3C769.7 274.5 770.5 275.1 774.4 274.5C776.3 274.2 778.1 274.4 779.6 274.5C783.2 274.9 785.1 275.1 786.6 269.5C787.8 264.8 787.9 260.3 787.9 256.4C787.9 252.9 787.9 249.8 788.8 247.3C790.6 242.1 791.9 233.5 791.7 231.1C791.6 229.5 792.8 228.8 793.4 228.5C793.4 228.5 793.5 228.5 793.5 228.4C793.3 228 792.6 227.2 790.5 225.4C784.3 220.1 777.6 217 770.5 216.1C769.4 216 768.4 215.8 767.3 215.7C762.4 215.1 758.1 214.5 755.9 215.3C753.5 216.2 744.8 220.8 742.9 221.8Z" fill="black"/>
<path d="M822.915 224.973L794.375 226.83L794.504 228.826L823.044 226.969L822.915 224.973Z" fill="black"/>
<path d="M737.6 234.3C737.5 234.2 727 228.9 718.7 225.5C715.5 224.2 711.7 223 707.7 221.7C701.1 219.6 694.3 217.4 690.1 214.8C683.6 210.8 665.8 202.1 665.7 202L666.6 200.2C667.3 200.6 684.7 209.1 691.2 213.1C695.2 215.5 701.9 217.7 708.4 219.8C712.5 221.1 716.3 222.4 719.6 223.7C728 227.1 738.6 232.5 738.7 232.5L737.6 234.3Z" fill="black"/>
<path d="M649.5 292.1L648.3 290.5C649.2 289.8 671 272.8 678.1 268.5C685.3 264.1 701 257.9 710.6 255.1C719.9 252.4 733.8 245.6 734 245.5L734.9 247.3C734.8 247.4 720.7 254.2 711.2 257C701.7 259.8 686.2 265.8 679.2 270.1C672.1 274.5 649.7 292 649.5 292.1Z" fill="black"/>
<path d="M672.8 335.5L672.3 334.6L671.7 333.8C671.8 333.7 672.1 333.5 672.6 333.1C684.4 323.8 692.2 318.4 695.9 317.1C698.4 316.2 701.4 315.7 704.6 315.1C709.6 314.2 714.7 313.3 717.7 310.9C718.8 310 719.9 309.1 721 308.1C725.3 304.5 730.2 300.3 734.6 298.7C739.6 296.8 746.1 289 748.3 285.7C750.7 282.1 759.6 270.8 760 270.3L761.6 271.5C761.5 271.6 752.4 283.2 750 286.7C748.1 289.6 741.3 298.2 735.3 300.5C731.3 302 726.5 306 722.3 309.5C721.1 310.5 720 311.4 718.9 312.3C715.5 315 710.1 316 704.8 316.9C701.7 317.4 698.8 317.9 696.5 318.8C694.1 319.7 688.2 323.1 673.7 334.5C672.9 335.4 672.9 335.5 672.8 335.5Z" fill="black"/>
<path d="M774.4 352.6C774.3 352.6 769.1 349.7 765.5 347.6C762.7 346 761.6 342.1 760.3 337.6C759.7 335.6 759.1 333.5 758.3 331.5C756.2 326.2 760.3 317.4 763.3 310.9C764.2 308.9 765 307.2 765.5 305.8C767.4 300.5 766 293.3 763.4 290.2C760.5 286.6 760.3 273.3 760.3 271.8H762.3C762.3 275.7 762.9 286.4 765 289C767.9 292.6 769.6 300.6 767.4 306.6C766.9 308 766.1 309.8 765.1 311.8C762.3 317.9 758.4 326.4 760.1 330.8C760.9 332.9 761.5 335 762.1 337.1C763.3 341.2 764.3 344.7 766.4 346C769.9 348.1 775.1 350.9 775.2 350.9L774.4 352.6Z" fill="black"/>
<path d="M719.9 372.5L719.4 370.6L742.3 364.3C742.5 364.3 755.9 360.9 760.3 358.3C761.6 357.5 763.2 356.7 764.8 355.9C768.6 354 773 351.7 776.2 348.7C780.9 344.2 795.5 330.5 795.5 330.5L808.1 319.9L809.4 321.4L796.7 332C796.7 332 782.2 345.7 777.5 350.2C774 353.5 769.6 355.7 765.6 357.8C764 358.6 762.5 359.4 761.2 360.1C756.6 362.8 743.3 366.1 742.7 366.3L719.9 372.5Z" fill="black"/>
<path d="M856.5 432.3C856.2 432 849.5 423.7 847.9 419.9C847.6 419.1 847.2 418.3 846.9 417.5C845.7 414.5 844.2 411 841.4 405.5C838.2 399.3 837.7 394.5 837 387.4C836.9 386.2 836.7 384.9 836.6 383.5C835.9 377 833.4 373.1 830 367.8C828.6 365.6 827 363.1 825.4 360.2C820 350.4 812.5 331.4 810.8 326C809.3 321.2 801.4 310.4 797.8 306.6C790.7 299 785.3 292.2 782.1 286.9C777.6 279.5 777.5 276.2 777.5 275.8H779.5H778.5H779.5C779.5 275.8 779.6 278.9 783.8 285.8C786.9 291 792.3 297.7 799.2 305.2C802.5 308.7 810.9 320 812.6 325.4C814.3 330.8 821.7 349.6 827 359.2C828.6 362.1 830.2 364.5 831.5 366.7C834.9 372.1 837.6 376.3 838.4 383.3C838.6 384.7 838.7 386 838.8 387.2C839.5 394.3 840 398.6 843 404.6C845.9 410.2 847.3 413.7 848.6 416.8C848.9 417.6 849.3 418.4 849.6 419.2C851.1 422.7 857.8 431 857.9 431.1L856.5 432.3Z" fill="black"/>
<path d="M944.6 400.1C944.2 399.9 934 394.3 930.8 392.1C928.1 390.3 925.8 386.7 923.6 383.3C923.1 382.5 922.6 381.8 922.1 381C920.8 379 918.8 377 916.8 375C915 373.2 913.1 371.3 911.6 369.2C909.6 366.5 906.8 365.7 903.6 364.7C902.1 364.3 900.6 363.8 899.1 363.2C894 361 879.1 353.3 870.2 346.9C866.8 344.5 863.2 342 859 339.2C852.3 334.7 844 329 833.8 321.5C823.1 313.6 819.4 308.3 815.9 303.2C814 300.4 812.1 297.8 809.2 294.8C800.9 286.2 786.4 273.5 786.3 273.4L787.6 271.9C787.7 272 802.3 284.8 810.6 293.4C813.6 296.5 815.6 299.4 817.5 302.1C821 307.1 824.6 312.2 835 319.9C845.2 327.4 853.1 332.8 860.1 337.6C864.3 340.5 868 342.9 871.4 345.4C880.2 351.8 894.9 359.4 900 361.5C901.5 362.1 902.9 362.6 904.3 363C907.7 364 910.9 365 913.3 368.2C914.7 370.1 916.6 372 918.3 373.8C920.4 375.9 922.4 378 923.8 380.1C924.3 380.8 924.8 381.6 925.3 382.4C927.4 385.7 929.6 389.1 932 390.7C935.1 392.8 945.5 398.5 945.6 398.6L944.6 400.1Z" fill="black"/>
<path d="M755 215.1C755 215 750.2 209.4 746.5 204.1C744.5 201.3 743.6 197 742.7 192.5C741.8 188.3 740.8 183.6 738.8 179.4C735.7 173 737.2 168.1 739 162.5C739.8 160 740.6 157.5 741.1 154.5C742.6 146.4 741.2 141.9 738.8 133.6C738.3 131.9 737.8 130.1 737.2 128C734.2 117.4 739.1 93.8 740.7 86C740.9 85.1 741.1 84.3 741.1 84.1L743.1 84.2C743.1 84.4 743.1 84.6 742.7 86.4C738.5 106.9 737.3 120.7 739.2 127.4C739.8 129.4 740.3 131.3 740.8 132.9C743.2 141.2 744.7 146.1 743.1 154.7C742.5 157.8 741.7 160.5 740.9 162.9C739.2 168.3 737.8 172.6 740.6 178.3C742.7 182.7 743.8 187.6 744.7 191.9C745.6 196.2 746.5 200.2 748.2 202.7C751.8 207.9 756.5 213.5 756.6 213.5L755 215.1Z" fill="black"/>
<path d="M746.5 204.2C746.4 204.1 740.7 197.6 736.5 194C734.4 192.2 730 190.1 724.9 187.7C719.5 185.1 713.5 182.2 707.4 178.5C695.8 171.5 689.9 172.1 689.9 172.1L689.6 170.1C689.9 170.1 696.2 169.3 708.5 176.8C714.5 180.4 720.5 183.3 725.8 185.9C731.2 188.5 735.5 190.6 737.8 192.5C742.1 196.2 747.8 202.6 748 202.9L746.5 204.2Z" fill="black"/>
<path d="M773.9 216.2C773.8 215.8 771.6 206.6 776.1 201.8C776.9 201 777.7 200.2 778.4 199.5C781.7 196.3 784.6 193.5 784.8 187.3C784.9 185 784.9 182.7 784.9 180.5C785 174.9 785 170 785.8 166.9C786.9 162.5 796.5 141.1 797.5 139C798.1 137.8 798.7 134.9 799.4 132.1C799.8 130.3 800.2 128.5 800.6 127C801.1 125.3 802.7 121.8 804.6 117.8C806.8 113.1 809.3 107.8 809.8 105.5C810.2 104 809.9 102.6 809.7 101.2C809.3 98.8 808.9 96.2 811.6 93.2C815.6 88.9 832.7 77.5 833.4 77L834.5 78.7C834.3 78.8 816.9 90.6 813 94.6C810.9 96.8 811.2 98.6 811.6 100.9C811.8 102.4 812.1 104.1 811.7 106C811.1 108.6 808.7 113.7 806.3 118.7C804.5 122.5 802.9 126.1 802.4 127.6C802 129 801.6 130.8 801.2 132.6C800.5 135.6 799.9 138.5 799.2 139.9C798.2 141.9 788.7 163.2 787.6 167.4C786.9 170.3 786.8 175.3 786.7 180.5C786.7 182.7 786.6 185 786.6 187.3C786.4 194.3 783.1 197.5 779.6 200.8C778.9 201.5 778.1 202.3 777.3 203.1C773.5 207.1 775.5 215.6 775.6 215.7L773.9 216.2Z" fill="black"/>
<path d="M821.2 577.5C822 577.5 822.5 577.7 822.5 578.1C823.3 581.8 824.5 586.5 826.1 592.2C827.3 598.4 828.3 602.4 829 604.2C829 604.4 827.9 604.5 825.8 604.5C825.3 604.5 824.8 604.4 824.3 604.4C823.8 604.5 823.5 604.5 823.3 604.5C823.1 604.5 823 604.1 823 603.2L822.4 600.7H821.9C821.7 600.7 821.6 600.7 821.6 600.7C821.2 600.7 820.8 600.7 820.5 600.6C819.3 600.7 818.6 600.7 818.3 600.9C818.2 600.9 818.1 600.8 817.9 600.8C817.7 601.2 817.5 602.4 817.1 604.2L816.7 604.3C816.7 604.3 816.2 604.3 815.1 604.2C814.9 604.2 814.5 604.2 813.9 604.3C813.7 604.3 813.3 604.3 812.6 604.2C812.3 604.2 812.1 604.3 811.9 604.3H811.6C811.6 604.3 811.6 604.3 811.6 604.2L812.2 601.5C812.5 601.5 812.8 599.7 813.3 596C813.4 595.9 813.7 594.6 814.2 592.1C814.2 591.5 814.6 589.8 815.4 587C815.6 584.8 816.2 582.2 817 579.2C817 578.1 817.2 577.6 817.7 577.6C818 577.6 818.5 577.6 819.1 577.7C820.4 577.6 821.1 577.5 821.2 577.5ZM819.7 590.7C819.1 593.7 818.8 595.4 818.8 595.9C819.9 595.8 820.7 595.7 821.1 595.7L820.1 590.7H819.7Z" fill="black"/>
<path d="M836.1 577.2C836.4 577.2 836.7 577.2 837.1 577.3C838.2 577.3 839 577.2 839.3 577.2C841.5 577.3 842.6 577.4 842.8 577.4C843 577.4 843.3 577.3 843.5 577.3H844.1C844 577.3 843.9 577.2 843.9 577.1L844.4 577.3H845C845.5 577.3 845.8 577.5 845.8 577.9C845.8 579.1 845.8 580.4 845.9 581.8C845.8 582.2 845.5 582.4 845.2 582.4C844.9 582.4 844.7 582.3 844.7 582.3L844.3 582.4L844.2 582.3L844 582.4C843.6 582.4 843.2 582.3 842.7 582.2C842.5 582.2 842.3 582.3 842.3 582.3C841.9 582.3 841.7 582.3 841.7 582.2C841.2 582.2 840.9 582.3 840.5 582.3H838.6C838.5 582.3 838.4 582.3 838.3 582.4C838.2 582.3 838.1 582.3 838 582.3H837.3H837.4V585.2H837.2C837.3 585.2 837.9 585.1 839 584.9C841.6 584.9 843.6 586.1 844.9 588.6C845.5 590 845.9 591.9 846.1 594.3L846 594.5C846 594.5 846 594.4 846.1 594.4L846 595V595.5C846 597.7 845.3 599.9 843.9 602C842.2 603.8 840.2 604.8 837.7 604.8H837.3C835.7 604.8 834.2 604.2 832.7 603C831.7 601.8 831 600.2 830.6 598.3C830.6 598 830.6 597.9 830.7 597.9L830.6 597.3V596.1C830.6 596.2 830.6 596.3 830.5 596.3C830.6 595.3 830.9 594.8 831.6 594.8C832.9 594.9 833.7 595 833.9 595C833.9 595 834.2 595 834.6 594.9L835.4 595.1V596C835.4 597.7 835.7 598.8 836.2 599.2C836.7 599.8 837.2 600.1 837.7 600.1H837.8C839 600.1 839.8 599.5 840.2 598.2C840.6 597.7 840.9 596.4 841.1 594.1V593.6C841 592.5 840.8 591.6 840.5 591C839.9 590.2 839.1 589.8 838 589.8C837.5 589.8 836.9 590.1 836.4 590.7C835.8 591.8 835.3 592.3 835 592.5H832.2C831.6 592.5 831.3 591.7 831.3 590.1C831.4 589.6 831.4 588.8 831.4 587.7H831.2L831.4 587.2C831.5 585 831.5 583.5 831.5 582.6L831.6 582C831.6 581.9 831.5 581.8 831.5 581.7L831.6 581.3C831.6 581.4 831.6 581.4 831.5 581.4L831.6 580.4V580.1C831.6 578.2 831.8 577.2 832.3 577.2C832.2 577.2 832.1 577.2 832.1 577.1C832.9 577.2 833.7 577.2 834.2 577.3C835.6 577.3 836 577.2 836.1 577.2Z" fill="black"/>
<path d="M856.6 577C859.8 577 862 578.6 863.2 581.8C863.7 582.6 864.2 585.3 864.8 589.6C864.8 590.1 864.8 590.4 864.9 590.4L864.8 591.1C864.8 596.8 863.9 600.5 862.2 602.2C861.7 603.2 860.5 604 858.7 604.7L856.4 605.1C855.3 605.1 853.9 604.6 852.2 603.6C851.1 602 850.3 600.7 849.9 599.7C848.8 597 848.3 594.3 848.3 591.7C848.3 591.7 848.2 591.6 848.2 591.3C848.2 591 848.3 590.8 848.3 590.6V590.5C848.3 590.4 848.3 590.3 848.2 590.2C848.4 587 848.8 584.6 849.4 583C850.6 580.1 851.9 578.4 853.2 577.9C854.4 577.2 855.6 577 856.6 577ZM854 587.4L854.1 587.6L853.9 588V589.6C853.9 589.9 853.9 590.1 853.8 590.3C853.9 592.1 854 593 854.2 593L854 593.5V593.6C854.5 597.9 855.3 600 856.6 600H856.7C857.3 600 857.9 599.4 858.5 598.1C859.1 596.2 859.3 593.8 859.3 591.1V590.9C859.3 586.6 858.8 583.8 857.7 582.5C857.2 582.2 856.8 582.1 856.3 582.1C855.2 582.5 854.7 583 854.7 583.7C854.4 584.7 854.1 586 854 587.4Z" fill="black"/>
<path d="M835.8 183.8L838.7 183.7C838.9 183.7 839.1 183.8 839.2 183.8V183.7L839.3 183.8C842.6 183.8 844.5 184.3 845 185.4C846.4 186.6 847.2 187.8 847.5 189.1C848.2 190.2 848.6 191.9 848.6 194C848.7 194.1 848.8 194.6 848.9 195.6V195.7C848.9 196.2 848.8 197 848.6 198.1C848.6 199.3 848.7 200 848.7 200.3C848.5 202.7 848.2 204.2 847.8 204.8L846.4 207.5C845.6 208.6 844.4 209.5 843 210C842.5 210.3 841.7 210.5 840.8 210.6C840.7 210.6 840.7 210.6 840.7 210.5L839.8 210.6H839.7C838.3 210.6 836.9 210.6 835.4 210.5V210.6C835.2 210.5 835 210.5 834.9 210.5L834.5 210.6C834.2 210.5 834.1 210.4 834.1 210.3C834.1 209.9 834 208.7 833.9 206.6L834.3 203.2C834.3 203.1 834.3 203 834.2 202.9L834.4 200.1H834.3C834.3 200 834.4 199.9 834.4 199.9C834.4 199.5 834.4 199.1 834.5 198.6L834.4 197.1C834.4 197.1 834.4 197 834.5 196.9C834.5 196.6 834.4 196.4 834.4 196.3V195.9C834.4 195.9 834.4 195.8 834.3 195.8L834.4 195.7V195.2C834.4 194.8 834.4 194.6 834.5 194.4C834.5 194.1 834.4 193.8 834.4 193.5V192.4C834.4 192.2 834.4 191.9 834.3 191.6C834.3 191.5 834.4 191.4 834.4 191.4C834.4 191 834.3 190.8 834.3 190.7L834.4 188.7C834.4 188.7 834.4 188.6 834.3 188.6C834.3 188.4 834.4 188.3 834.4 188.3C834.4 188.2 834.4 187.2 834.3 185.5L834.4 184.9L834.3 184.8C834.3 184.3 834.5 184 835 184H835.6C835.7 183.8 835.8 183.8 835.8 183.8C835.8 183.7 835.8 183.7 835.8 183.8ZM839.6 189.2L839.5 189.4V189.9C839.5 190.4 839.5 191 839.4 191.6L839.5 191.7L839.4 192C839.5 193.6 839.6 195.4 839.6 197.3C839.6 197.8 839.6 198.9 839.5 200.5H839.6C839.6 200.6 839.5 201 839.5 201.6H839.6L839.5 201.7V203.7C839.5 203.8 839.5 203.9 839.6 204C839.6 204.1 839.5 204.2 839.5 204.2L839.6 204.6C839.6 204.8 839.5 205 839.5 205.1C839.5 205.3 839.7 205.4 839.9 205.4C839.9 205.4 840 205.4 840 205.3L840.1 205.4C841 205.4 841.9 205 842.8 204.3C843.6 202.6 843.9 200.2 843.9 197.1V196.7C843.9 196.7 843.9 196.6 843.8 196.6C843.8 196.6 843.8 196.5 843.9 196.5C843.6 192.2 843.2 190.1 842.8 190.1C842.6 189.9 842.2 189.5 841.6 189.1H840.9C840.5 189.3 840.1 189.3 839.6 189.2Z" fill="black"/>
<path d="M858 183.2C858.6 183.3 858.9 183.3 859.1 183.3C859.6 183.3 860.8 183.3 862.8 183.4C863.2 183.4 863.4 183.9 863.4 185C863.4 185.3 863.4 185.5 863.5 185.6L863.4 185.7C863.4 186 863.5 186.2 863.5 186.3C863.5 187.4 863.2 187.9 862.6 187.9C862.5 187.9 862.2 187.9 861.8 188C861.6 188 860.6 188 858.8 187.9C858.1 187.9 857.6 188 857.3 188C857.3 188 857.3 188.1 857.2 188.2C857.2 188.3 857.2 188.4 857.3 188.4C857.3 189 857.2 189.4 857.2 189.7C857.2 190.7 857.2 192.2 857.3 194.1H857.7C857.7 194.1 857.8 194.1 857.8 194L857.9 194.1L858.4 194C858.9 194.1 859.3 194.1 859.7 194.1H861.8C862.7 194.2 863.2 194.4 863.2 194.7C863.1 195.7 863 196.9 862.9 198.4H863C862.9 198.9 862.6 199.1 862 199.1C861.2 199 860.7 199 860.6 199C859.6 199.1 858.8 199.1 858.4 199.1H858.3C858.3 199.1 858.2 199.1 858.2 199.2L858.1 199.1H857.2L857.1 201C857.1 201.2 857.2 202.4 857.2 204.6H857.3L857.2 204.7V204.8C857.2 204.9 857.4 205 857.7 205.1C858.8 204.9 859.5 204.8 859.9 204.8L861.5 205C861.8 205 862 204.9 862.2 204.9H862.7C863 204.9 863.2 205 863.3 205.3C863.3 206.5 863.2 207.5 863.2 208.2V208.5C863.2 208.8 863.2 209.1 863.3 209.5C863.3 209.7 863.2 209.8 863 209.9L862.9 209.8H862.3C861.8 209.9 861.5 210 861.2 210C860.7 210 859.6 210 858 210.1V210.2L857.9 210.1H857.6C857.3 210.1 856.6 210.2 855.4 210.3C854.5 210.2 853.8 210.1 853.5 210.1H852.4C852 210.1 851.8 209.9 851.7 209.6L851.8 209.2C851.8 208.7 851.8 208.3 851.9 208C851.9 207.5 851.8 207.1 851.8 206.7C851.8 206.4 851.9 205.1 852.1 203C852.1 202.9 852 202.8 852 202.8L852.1 202.7L852 202.6C852 202.5 852 202.5 852.1 202.5L852 202V202C852 201.8 852 201.7 852.1 201.6C852 200.7 851.9 199.3 851.8 197.4C851.9 196.9 851.9 196.6 852 196.3L851.9 195.9V195.8C851.9 195.6 851.9 195.3 852 195.1L851.9 194.7L852 194.3C852 193.4 851.9 193 851.9 193L852 192.6V192C852 191.7 852 191.6 851.9 191.5C851.9 191.2 852 191 852 190.9C852 190.3 852 189 851.9 187.2H851.8L851.9 187.1V185.5C851.9 185.3 851.9 185.2 851.8 185.1L851.9 184.7V183.7C851.9 183.6 852.1 183.5 852.5 183.4L852.9 183.5H854.9C856.6 183.3 857.7 183.2 858 183.2Z" fill="black"/>
<path d="M867.1 183.1C868.2 183.1 869.1 183.2 869.9 183.2C870.2 183.2 870.6 183.2 871 183.1C871.2 183.1 871.4 183.2 871.5 183.2C871.5 183.2 871.6 183.2 871.7 183.1C875.1 183.1 877.4 184.9 878.6 188.5L879.1 190.5C879.1 190.5 879.1 190.6 879 190.8C879.1 191.6 879.2 192.4 879.2 193.3V193.6C879.2 193.7 879.2 193.8 879.3 193.9C878.9 197 878.5 198.5 878.2 198.5C878.2 198.8 877.5 199.9 876.2 201.7C877.2 204.7 878.6 207.6 880.3 210.4V210.5C879.3 210.6 878.4 210.7 877.6 210.9C875.4 210.6 874.4 210.4 874.4 210.3C873.7 208.4 872.9 206.5 872 204.5C871.8 204.5 871.4 204.6 870.9 204.7V207C870.9 207.4 870.9 207.8 870.8 208.3C870.8 208.5 870.9 208.7 870.9 208.8L870.8 209.7L870.9 210C870.8 210.3 870.7 210.4 870.5 210.4C870.1 210.4 869.7 210.4 869.4 210.3L867.4 210.4C867.3 210.4 867.2 210.3 867.2 210.3C866.6 210.4 866 210.5 865.5 210.5C865.3 210.5 865.1 210.2 865.1 209.6V209C865.4 204.2 865.5 201.5 865.5 200.8L865.3 197L865.4 196.9C865.4 196.9 865.4 196.8 865.3 196.8L865.4 195.9V194.8C865.4 194.6 865.4 194.5 865.3 194.4C865.3 194.3 865.4 193.6 865.4 192.3C865.4 192.3 865.4 192.2 865.3 192.1L865.4 191.7V191C865.4 190.5 865.4 190 865.5 189.6H865.4C865.4 189.6 865.4 189.5 865.5 189.5L865.4 188.6V188.2C865.4 188 865.4 187.7 865.5 187.5L865.4 187.2C865.4 186.7 865.5 186.3 865.5 185.9H865.4L865.5 185.8V185.1C865.5 185.1 865.5 185 865.4 185L865.5 184.9C865.5 184.8 865.5 184.4 865.4 183.8C865.6 183.4 866.1 183.2 867.1 183.1ZM871 188V188.3C871 188.5 871 188.6 870.9 188.7L871 189C871 189.5 870.9 189.9 870.9 190.1H871L870.9 190.2V191.7C870.9 191.7 870.9 191.8 871 191.8C871 191.9 870.9 192.1 870.9 192.4C870.9 192.5 870.9 192.7 871 193L870.9 194.4C870.9 194.9 871 195.4 871 195.8V196.5C871 197.1 871 197.9 870.9 199.2L871 199.3C872.5 198.8 873.3 198.2 873.3 197.6C874 196.7 874.3 196.1 874.3 195.6C874.4 195.5 874.6 194.6 874.7 192.9C874.7 191.9 874.5 190.7 874.1 189.5C873.6 188.5 872.7 188 871.4 188H871Z" fill="black"/>
<path d="M883.1 183.4L884.5 183.5C885.2 183.4 885.8 183.4 886.3 183.4L886.8 183.5L886.9 183.4C887.2 183.4 887.5 183.5 887.7 183.5H887.9C887.9 183.5 888 183.5 888 183.4L888.1 183.5H889.1C890.9 183.8 892.2 184.4 893 185.3C894.2 187.1 894.9 189.4 894.9 192.3C894.5 194.7 894.1 196 893.8 196C893.5 196.4 893.3 196.8 893.2 196.9C894.3 197.8 894.9 198.8 895.2 200.1C895.4 200.6 895.6 201.4 895.8 202.6C895.8 206.1 894.6 208.4 892.1 209.8C891.1 210.5 889.6 210.8 887.4 210.8C887.2 210.8 887 210.7 886.9 210.7V210.8C886.2 210.7 885.2 210.6 883.7 210.6H882C881.8 210.6 881.6 209.6 881.6 207.7H881.5C881.5 207.7 881.5 207.6 881.6 207.6L881.5 206.7C881.5 205.9 881.5 204.5 881.4 202.7L881.5 202.3L881.4 202.2L881.5 201.9C881.5 201.1 881.4 200.4 881.4 199.8H881.3C881.4 199.6 881.4 199.4 881.4 199.2V198.6C881.4 197.8 881.4 197.2 881.5 196.9C881.5 196.4 881.4 196 881.4 195.6C881.4 195.3 881.4 194.7 881.5 193.7L881.1 191.5L881.4 189H881.3L881.4 188.9V187.8C881.5 187.1 881.5 186.7 881.5 186.7V185.7C881.5 185 881.5 184.4 881.4 184C881.9 183.6 882.4 183.4 883.1 183.4ZM887 199.6C887 199.6 887 199.7 887.1 199.8C887.1 199.9 887.1 200 887 200.1C887 200.9 887.1 201.6 887.1 202.2V202.4C887.1 202.6 887.1 202.8 887 203C887 203.1 887.1 203.2 887.1 203.3C887.1 203.4 887.1 203.4 887 203.4L887.1 204.1V205.2C887.1 205.3 887.3 205.4 887.7 205.4H888C890 205.4 890.9 204.4 890.9 202.5C890.9 200.9 890.3 199.9 889 199.3C888.5 199.2 888.2 199.2 887.9 199.2H887.4C887.1 199.5 887 199.5 887 199.6ZM887.1 188.7C887.1 189.6 887.1 191.6 887.2 194.6H887.3C888.5 194.6 889.4 194.1 889.9 193.2C890 192.8 890 192.5 890 192.2V191.2C889.9 189.6 889.4 188.8 888.5 188.8C887.9 188.7 887.4 188.7 887.3 188.7C887.1 188.6 887.1 188.7 887.1 188.7Z" fill="black"/>
<path d="M896.1 183.8C896.5 183.8 896.8 183.9 897.1 183.9H897.7C897.7 183.9 897.8 183.9 897.8 183.8C897.9 183.8 898 183.9 898 183.9C899.8 183.9 900.7 184 900.7 184.3C902.1 188.7 903.3 192.2 904.3 194.7H904.4C904.6 194.7 905.2 192.7 906.3 188.8C907.1 186.1 907.6 184.5 907.8 184.2L908.3 184.1H910.5C910.9 184.1 911.3 184.1 911.9 184C912.5 184.1 912.8 184.2 912.8 184.3C912.8 184.5 911.1 189.5 907.6 199.4C907 200.9 906.7 202.4 906.7 203.7V207.7C906.7 208.1 906.7 208.5 906.8 209C906.8 209.1 906.7 209.5 906.7 210V210.2C906.7 210.4 905.9 210.5 904.3 210.6H903.3C902.1 210.6 901.4 210.5 901.4 210.2C901.4 210 901.4 209.9 901.3 209.9L901.4 209.8V208.7C901.4 208.4 901.4 208.2 901.5 208.1C901.5 207.8 901.4 207.6 901.4 207.4V206.7C901.4 206.5 901.4 206.2 901.5 206L901.4 205.6C901.4 205.3 901.4 204.9 901.5 204.3C901.5 203.3 901.4 202.4 901.4 201.6L896.8 188.5C896.8 188.4 896.3 186.9 895.4 184C895.5 184 895.8 183.9 896.1 183.8Z" fill="black"/>
<path d="M405.6 671.9C406.4 671.9 406.8 672.1 406.8 672.4C407.1 674 407.3 675 407.4 675.3V675.4C407.4 675.8 407.7 677.3 408.2 680H408.3C408.9 677.3 409.4 675.2 409.8 673.5C410 672.4 410.1 671.9 410.2 671.9H410.3C410.6 672 410.8 672 410.8 672C411 672 411.3 672 411.6 672C412.9 672 413.6 672.1 413.6 672.3C413.3 673 412.9 674.4 412.5 676.3C412.1 677.7 411.4 680.3 410.4 684C410 686.6 409.7 687.9 409.5 687.9C409.3 688 409.1 688 408.8 688L407.5 687.9C407.1 687.9 406.8 687.9 406.6 687.9C406.3 687.9 406.1 687.1 405.8 685.4C405.5 684.2 405.3 683.4 405.2 682.7C405 683.4 404.9 683.8 404.9 683.9C404.5 686.5 404.2 687.8 404 687.8C403.8 687.9 403.6 687.9 403.3 687.9L402 687.8C401.6 687.8 401.3 687.8 401.1 687.8C400.8 687.8 400.6 687.1 400.4 685.6C399.9 683.5 399.5 681.4 399.2 679.4C398.3 675.5 397.7 673.2 397.4 672.2C397.4 672 397.5 671.9 397.6 671.9H397.8C397.9 671.9 398.1 671.9 398.2 671.9C398.6 671.8 398.9 671.8 399 671.8C399.4 671.9 399.6 671.9 399.8 671.9C400.3 671.9 400.6 671.9 400.6 671.8C401 671.8 401.2 672.1 401.2 672.8C401.4 673.6 401.7 675.1 402 677.1C402 677.1 402.2 678 402.5 679.8H402.6C402.6 679.8 402.6 679.6 402.7 679.3C402.7 679.2 402.7 679.1 402.7 679.1C403.3 677.3 403.5 676.3 403.5 676.2C404 674.2 404.4 672.7 404.6 671.7C405 671.9 405.2 671.9 405.6 671.9Z" fill="black"/>
<path d="M414.8 672C415.3 672.1 415.5 672.1 415.6 672.1H415.9C416 672.1 416.1 672.1 416.3 672.1C416.7 672 417.1 672 417.4 672C417.8 672 417.9 672.2 417.9 672.5V672.7C417.9 672.8 417.9 672.8 417.9 672.8V673.3V674.6C417.9 675 417.9 675.7 417.9 676.6V676.7C417.9 676.8 417.9 676.9 417.9 677C417.9 677.6 417.8 678.6 417.8 680C417.8 680.7 417.8 681.5 417.8 682.4V682.5C417.8 682.9 417.9 683.7 417.9 685V685.2C417.9 685.2 417.9 685.3 417.9 685.4V685.5C417.9 685.8 417.9 686 417.9 686.1V686.9C417.9 687.6 417.8 687.9 417.5 687.9C416.9 687.9 416.5 687.8 416.3 687.8H416.1C415.9 687.8 415.8 687.8 415.8 687.8C415.3 687.9 414.9 687.9 414.5 687.9C414.3 687.9 414.2 687.8 414.2 687.5V687.2V687.1V687C414.2 686.8 414.2 686.6 414.2 686.5C414.3 686.2 414.3 685.5 414.4 684.5V684.3V684.2C414.4 684.1 414.4 684 414.4 684V683.7C414.4 683.6 414.4 683.5 414.4 683.5C414.4 683.3 414.4 683.2 414.4 683C414.4 682.5 414.4 682 414.3 681.5V681.3L414.2 678.5L414.3 676.5V676.2V676C414.2 674.1 414.1 673.1 414.1 672.8C414.1 672.5 414.1 672.2 414.1 672C414.2 671.9 414.3 671.8 414.4 671.8H414.8V672Z" fill="black"/>
<path d="M422.3 672L422.9 672.1V673.2C422.9 673.4 422.9 673.6 422.9 673.9V674C422.9 674.2 422.9 674.3 422.9 674.4V675C422.9 675.1 422.9 675.1 422.9 675.2C422.9 675.2 422.9 675.3 422.9 675.4V675.6V675.7V676.3C422.9 676.6 423 677.4 423 678.7C423.1 679.3 423.1 679.9 423.1 680.5V681.4C423.1 682 423.1 682.7 423.1 683.5L423.2 684.1C423.6 684.1 423.7 684.1 423.7 684.1C424.4 684 424.9 684 425 684C425.2 684 425.6 684 426 684.1C426.1 684.1 426.3 684.1 426.4 684.1H426.8C427 684.1 427.1 684.4 427.1 684.9C427 685.1 427 685.3 427 685.3C427 685.8 427 686.5 426.9 687.2C426.9 687.5 426.8 687.7 426.5 687.7H425.6C425.3 687.7 425 687.7 424.6 687.7C424.5 687.7 424.5 687.7 424.5 687.7C424.5 687.7 424.4 687.7 424.2 687.7H424.1C424 687.6 423.8 687.6 423.6 687.6H422.9C422.5 687.6 421.6 687.6 420.2 687.7C419.8 687.7 419.7 687.5 419.7 687.4C419.7 687.2 419.7 687.1 419.7 686.9V686.7V685.1V684.8V684.7C419.7 684.4 419.7 684.2 419.7 684C419.7 683.6 419.7 683.5 419.7 683.5C419.7 683 419.7 682.6 419.7 682.4V681.3C419.7 681.1 419.7 680.9 419.7 680.6C419.7 680.6 419.7 680.5 419.7 680.4V680.3V680.2C419.7 679.7 419.6 679.5 419.6 679.4V679.1C419.6 678.7 419.6 678.2 419.6 677.6C419.6 676.5 419.6 675.6 419.6 674.9V674.8C419.6 674.8 419.6 674.7 419.6 674.6V673.9C419.6 673.7 419.6 673.6 419.6 673.6C419.6 673.4 419.6 673.3 419.6 673.2V672.1C419.6 671.9 419.7 671.8 419.9 671.8L420.7 671.9C420.9 671.8 421.1 671.8 421.3 671.8H422.3V672Z" fill="black"/>
<path d="M430.9 672L431.5 672.1V673.2C431.5 673.4 431.5 673.6 431.5 673.9V674C431.5 674.2 431.5 674.3 431.5 674.4V675C431.5 675.1 431.5 675.1 431.5 675.2C431.5 675.2 431.5 675.3 431.5 675.4V675.6V675.7V676.3C431.5 676.6 431.6 677.4 431.6 678.7C431.7 679.3 431.7 679.9 431.7 680.5V681.4C431.7 682 431.7 682.7 431.7 683.5L431.8 684.1C432.2 684.1 432.3 684.1 432.3 684.1C433 684 433.5 684 433.6 684C433.8 684 434.2 684 434.6 684.1C434.7 684.1 434.9 684.1 435 684.1H435.4C435.6 684.1 435.7 684.4 435.7 684.9C435.6 685.1 435.6 685.3 435.6 685.3C435.6 685.8 435.6 686.5 435.5 687.2C435.5 687.5 435.4 687.7 435.1 687.7H434.2C433.9 687.7 433.6 687.7 433.2 687.7C433.1 687.7 433.1 687.7 433.1 687.7C433.1 687.7 433 687.7 432.8 687.7H432.7C432.6 687.6 432.4 687.6 432.2 687.6H431.5C431.1 687.6 430.2 687.6 428.8 687.7C428.4 687.7 428.3 687.5 428.3 687.4C428.3 687.2 428.3 687.1 428.3 686.9V686.7V685.1V684.8V684.7C428.3 684.4 428.3 684.2 428.3 684C428.3 683.6 428.3 683.5 428.3 683.5C428.3 683 428.3 682.6 428.3 682.4V681.3C428.3 681.1 428.3 680.9 428.3 680.6C428.3 680.6 428.3 680.5 428.3 680.4V680.3V680.2C428.3 679.7 428.2 679.5 428.2 679.4V679.1C428.2 678.7 428.2 678.2 428.2 677.6C428.2 676.5 428.2 675.6 428.2 674.9V674.8C428.2 674.8 428.2 674.7 428.2 674.6V673.9C428.2 673.7 428.2 673.6 428.2 673.6C428.2 673.4 428.2 673.3 428.2 673.2V672.1C428.2 671.9 428.3 671.8 428.5 671.8L429.3 671.9C429.5 671.8 429.7 671.8 429.9 671.8H430.9V672Z" fill="black"/>
<path d="M436.8 672C437.3 672.1 437.5 672.1 437.6 672.1H437.9C438 672.1 438.1 672.1 438.3 672.1C438.7 672 439.1 672 439.4 672C439.8 672 439.9 672.2 439.9 672.5V672.7C439.9 672.8 439.9 672.8 439.9 672.8V673.3V674.6C439.9 675 439.9 675.7 439.9 676.6V676.7C439.9 676.8 439.9 676.9 439.9 677C439.9 677.6 439.8 678.6 439.8 680C439.8 680.7 439.8 681.5 439.8 682.4V682.5C439.8 682.9 439.9 683.7 439.9 685V685.2C439.9 685.2 439.9 685.3 439.9 685.4V685.5C439.9 685.8 439.9 686 439.9 686.1V686.9C439.9 687.6 439.8 687.9 439.5 687.9C438.9 687.9 438.5 687.8 438.3 687.8H438.1C437.9 687.8 437.8 687.8 437.8 687.8C437.3 687.9 436.9 687.9 436.5 687.9C436.3 687.9 436.2 687.8 436.2 687.5V687.2V687.1V687C436.2 686.8 436.2 686.6 436.2 686.5C436.3 686.2 436.3 685.5 436.4 684.5V684.3V684.2C436.4 684.1 436.4 684 436.4 684V683.7C436.4 683.6 436.4 683.5 436.4 683.5C436.4 683.3 436.4 683.2 436.4 683C436.4 682.5 436.4 682 436.3 681.5V681.3L436.2 678.5L436.3 676.5V676.2V676C436.2 674.1 436.1 673.1 436.1 672.8C436.1 672.5 436.1 672.2 436.1 672C436.2 671.9 436.3 671.8 436.4 671.8H436.8V672Z" fill="black"/>
<path d="M443.9 672C444.5 672.1 444.8 672.2 444.8 672.3C444.8 672.6 445.6 674.8 447.2 678.8V678.6C447.1 678 447.1 677.6 447.1 677.3V677C447.2 676.7 447.2 676.6 447.2 676.5V674.7C447.2 674.6 447.2 674.4 447.2 674.3C447.2 674.2 447.2 674 447.2 673.9V672.6C447.2 672.3 447.4 672.2 447.8 672.2L448.5 672.1C448.8 672.2 449.2 672.2 449.7 672.2H449.8C450.1 672.2 450.2 672.3 450.2 672.5V673V673.1C450.2 674.2 450.1 674.8 450.1 675V675.1C450.1 675.1 450.1 675.2 450.1 675.3V675.6V675.8C450.1 676 450.1 676.1 450.1 676.1C450.1 676.3 450.1 676.5 450.1 676.6V676.7C450.1 676.8 450.1 676.9 450.1 676.9V677.2V677.3C450.1 677.3 450 677.5 450 677.9V678V678.3C450 678.4 450 678.4 450 678.5C450 678.6 450 678.6 450 678.6C450.1 678.8 450.1 679.5 450.2 680.9C450.2 681 450.2 681.2 450.2 681.4C450.2 681.6 450.2 681.7 450.2 681.8C450.2 682 450.1 682.6 450.1 683.7C450.2 684.4 450.2 685.1 450.2 685.7V686.2C450.2 686.4 450.2 686.7 450.2 687C450.2 687.1 450.2 687.2 450.2 687.4C450.1 687.8 450 688 449.7 688H449.6C449.4 688 449.3 688 449.3 688C449.1 688 449 688 449 688H448.9H448.8C448.3 688.1 447.9 688.1 447.7 688.1C447.3 688.1 447.1 687.8 446.9 687.1L445.9 683.8C445.6 682.9 445.3 682.1 444.7 681.1C444.6 680.9 444.5 680.8 444.4 680.8V680.9V681.1C444.4 681.2 444.4 681.4 444.4 681.6C444.4 681.7 444.4 681.7 444.4 681.7C444.4 681.7 444.4 681.8 444.4 681.9V682.2C444.4 682.7 444.3 683 444.3 683C444.3 683.2 444.3 683.3 444.3 683.5V684C444.3 684.1 444.3 684.7 444.4 685.8V687C444.4 687.1 444.4 687.2 444.4 687.4V687.7V687.8C444.4 688.2 444.2 688.4 443.9 688.4H442.2C442.1 688.4 441.9 688.4 441.7 688.4C441.7 688.4 441.6 688.4 441.4 688.4C441.3 688.4 441.3 688.3 441.3 688.2C441.3 688.1 441.3 688 441.3 687.9C441.3 687.7 441.3 687.5 441.3 687.2C441.3 687.1 441.3 687 441.3 686.9C441.3 686.8 441.3 686.7 441.3 686.5C441.3 686.4 441.3 686.3 441.3 686.3C441.3 686.2 441.3 686.1 441.3 686.1C441.3 685.6 441.3 685.2 441.3 685C441.3 684.9 441.3 684.8 441.3 684.8C441.3 683.6 441.4 682.8 441.4 682.6C441.4 682.5 441.4 682.5 441.4 682.5C441.4 682.3 441.4 681.9 441.4 681.3V681.1V680.9L441.2 679.2V679C441.2 678.8 441.2 678.5 441.2 678V677.8C441.2 677.7 441.2 677.7 441.2 677.6C441.2 676.9 441.3 675.7 441.3 674.1V674V673.9C441.3 673.8 441.3 673.8 441.3 673.8L441.4 673.1C441.4 673 441.4 672.9 441.4 672.8C441.6 672.2 442.4 672.1 443.9 672Z" fill="black"/>
<path d="M456 671.8C456.9 671.8 457.8 672 458.7 672.4C459.6 673.2 460.1 673.7 460.3 674.2C460.8 675 461 676 461 677.4C461 677.5 460.9 677.5 460.7 677.6C460.7 677.6 460.5 677.6 460.4 677.5C460.1 677.6 459.8 677.6 459.5 677.6H459.1C459.1 677.6 459 677.6 458.8 677.6C458.5 677.6 458.3 677.6 458 677.6C457.8 676.4 457.7 675.8 457.5 675.7L457 675.3H456.5C456.1 675.3 455.7 675.6 455.3 676.1C454.9 677.2 454.8 678.3 454.8 679.1V679.9V680V680.1C454.9 681.8 455 682.8 455.1 683C455.4 683.9 455.7 684.5 456.1 684.7C456.3 684.8 456.5 684.8 456.6 684.8H456.8C457.4 684.6 457.6 684.3 457.6 684C457.8 683.8 457.9 683.1 458.1 682H458C458 682 457.6 682 457 682C457 682 456.9 682 456.7 682C456.6 682 456.5 681.9 456.5 681.7V680.1C456.5 679.8 456.6 679.6 456.7 679.6H456.9H457.2C457.3 679.6 457.4 679.6 457.6 679.6C457.6 679.6 457.7 679.6 457.8 679.6H458C458 679.6 458.1 679.6 458.3 679.6C458.4 679.6 458.5 679.6 458.6 679.6H458.7C458.8 679.6 458.8 679.6 458.9 679.6L460.8 679.5C461.1 679.5 461.3 679.6 461.3 679.8C461.3 679.9 461.3 680.1 461.3 680.2C461.3 680.3 461.3 680.3 461.3 680.3V680.7V681.5C461.1 683.2 460.9 684.2 460.7 684.6C460.5 685.3 460.2 685.8 459.8 686.3L458.8 687.1C458.1 687.4 457.4 687.6 456.5 687.6C455.1 687.6 454.1 687.1 453.3 686.1C452.5 684.5 452.1 683.3 452.1 682.5C451.9 681.9 451.8 681.2 451.8 680.3V679.8C451.8 679 452 677.6 452.3 675.5C452.4 674.8 452.8 674 453.3 673.2C453.7 672.3 454.7 671.8 456 671.8Z" fill="black"/>
<path d="M468.8 671.9C469.2 672 469.5 672 469.6 672V672.3V673.5C469.6 673.6 469.6 673.8 469.6 673.9C469.6 674 469.6 674.2 469.6 674.3V675.6C469.6 675.8 469.5 675.9 469.2 675.9H468.9H468.7H468.5H468.4H468.2C468.2 675.9 468 675.9 467.7 675.9H467.1C467.1 675.9 467 676.1 467 676.3V676.5V676.6L467.2 679.5C467.2 679.6 467.2 679.7 467.2 679.8C467.2 680.1 467.2 680.2 467.3 680.2V680.3C467.4 680.8 467.4 681.1 467.4 681.4C467.4 681.5 467.4 682 467.5 682.7C467.5 682.9 467.5 683.2 467.5 683.6V683.7V683.8V684.3V684.6C467.5 684.9 467.5 685.1 467.5 685.2V686V686.1V686.7C467.5 687.3 467.4 687.6 467.1 687.6C467 687.6 466.8 687.6 466.6 687.7H466C465.7 687.7 465.3 687.7 464.9 687.6C464.3 687.6 464.1 687.4 464.1 687.1V685.8C464.1 685.6 464.1 685.4 464.1 685.2C464.1 685.1 464.1 685.1 464.1 685.1C464.1 685 464.1 684.9 464.1 684.8V684.7V683.8C464.1 683.6 464.1 683.3 464.1 683C464.1 682.9 464.1 682.8 464.1 682.7C464.1 682.5 464.1 682.3 464.1 682.2V681.7V680.3L464 678.7C464 678.2 464.1 677.8 464.1 677.7C464.1 677.7 464.1 677.6 464.1 677.5C464.1 677.4 464.1 677.3 464.1 677.3V677V675.7C463.8 675.7 463.3 675.7 462.6 675.7H462.2H462.1C461.9 675.7 461.8 675.6 461.8 675.5V675.1C461.8 674.5 461.7 674 461.7 673.8V673.3V672.2C461.7 671.9 461.8 671.8 462.1 671.8H463C463.1 671.8 463.1 671.8 463.2 671.8C463.2 671.8 463.3 671.8 463.4 671.8H463.7H463.8C464.9 672 466.6 672 468.8 671.9Z" fill="black"/>
<path d="M475.9 671.3C476.6 671.3 477.3 671.6 478 672.2C479.1 673.5 479.6 674.5 479.6 675.2C479.7 675.4 479.9 676.4 480.2 678.3V678.4L480.4 680C480.4 681.1 480 682.8 479.3 685.2C479 686 478.5 686.6 477.9 687.2C477 687.7 476.2 688 475.4 688C474.3 687.8 473.5 687.5 473.1 687C472.1 685.9 471.3 684.5 470.9 682.8C470.8 682.8 470.6 681.6 470.5 679.3C470.5 678.5 470.7 677.1 471.1 675.1C471.6 673.8 472 673 472.4 672.7C472.9 672.2 473.6 671.7 474.6 671.4C474.6 671.3 475.1 671.3 475.9 671.3ZM473.6 677.8C473.6 678.5 473.6 679 473.6 679.5C473.7 682.5 474.2 684.3 475.2 684.9C475.3 685 475.4 685 475.5 685C475.9 685 476.2 684.8 476.4 684.4C476.8 683.1 477 681.7 477 680.3C477 677.4 476.7 675.6 476 674.7C475.6 674.5 475.4 674.4 475.2 674.4H475C474.6 674.4 474.3 674.8 473.9 675.5C473.7 676.9 473.6 677.7 473.6 677.8Z" fill="black"/>
<path d="M483.7 672C484.3 672.1 484.6 672.2 484.6 672.3C484.6 672.6 485.4 674.8 487 678.8V678.6C486.9 678 486.9 677.6 486.9 677.3V677C487 676.7 487 676.6 487 676.5V674.7C487 674.6 487 674.4 487 674.3C487 674.2 487 674 487 673.9V672.6C487 672.3 487.2 672.2 487.6 672.2L488.3 672.1C488.6 672.2 489 672.2 489.5 672.2H489.6C489.9 672.2 490 672.3 490 672.5V673V673.1C490 674.2 489.9 674.8 489.9 675V675.1C489.9 675.1 489.9 675.2 489.9 675.3V675.6V675.8C489.9 676 489.9 676.1 489.9 676.1C489.9 676.3 489.9 676.5 489.9 676.6V676.7C489.9 676.8 489.9 676.9 489.9 676.9V677.2V677.3C489.9 677.3 489.8 677.5 489.8 677.9V678V678.3C489.8 678.4 489.8 678.4 489.8 678.5C489.8 678.6 489.8 678.6 489.8 678.6C489.9 678.8 489.9 679.5 490 680.9C490 681 490 681.2 490 681.4C490 681.6 490 681.7 490 681.8C490 682 489.9 682.6 489.9 683.7C490 684.4 490 685.1 490 685.7V686.2C490 686.4 490 686.7 490 687C490 687.1 490 687.2 490 687.4C489.9 687.8 489.8 688 489.5 688H489.4C489.2 688 489.1 688 489.1 688C488.9 688 488.8 688 488.8 688H488.7H488.6C488.1 688.1 487.7 688.1 487.5 688.1C487.1 688.1 486.9 687.8 486.7 687.1L485.7 683.8C485.4 682.9 485.1 682.1 484.5 681.1C484.4 680.9 484.3 680.8 484.2 680.8V680.9V681.1C484.2 681.2 484.2 681.4 484.2 681.6C484.2 681.7 484.2 681.7 484.2 681.7C484.2 681.7 484.2 681.8 484.2 681.9V682.2C484.2 682.7 484.1 683 484.1 683C484.1 683.2 484.1 683.3 484.1 683.5V684C484.1 684.1 484.1 684.7 484.2 685.8V687C484.2 687.1 484.2 687.2 484.2 687.4V687.7V687.8C484.2 688.2 484 688.4 483.7 688.4H482C481.9 688.4 481.7 688.4 481.5 688.4C481.5 688.4 481.4 688.4 481.2 688.4C481.1 688.4 481.1 688.3 481.1 688.2C481.1 688.1 481.1 688 481.1 687.9C481.1 687.7 481.1 687.5 481.1 687.2C481.1 687.1 481.1 687 481.1 686.9C481.1 686.8 481.1 686.7 481.1 686.5C481.1 686.4 481.1 686.3 481.1 686.3C481.1 686.2 481.1 686.1 481.1 686.1C481.1 685.6 481.1 685.2 481.1 685C481.1 684.9 481.1 684.8 481.1 684.8C481.1 683.6 481.2 682.8 481.2 682.6C481.2 682.5 481.2 682.5 481.2 682.5C481.2 682.3 481.2 681.9 481.2 681.3V681.1V680.9L481 679.2V679C481 678.8 481 678.5 481 678V677.8C481 677.7 481 677.7 481 677.6C481 676.9 481.1 675.7 481.1 674.1V674V673.9C481.1 673.8 481.1 673.8 481.1 673.8L481.2 673.1C481.2 673 481.2 672.9 481.2 672.8C481.4 672.2 482.1 672.1 483.7 672Z" fill="black"/>
<path d="M157 561.1C157.8 561.1 158.1 561.2 158.1 561.4C158.1 561.6 158.1 561.7 158.1 561.7L158.2 564.7L158.1 567.3V567.6C158.1 567.8 158.1 568 158.1 568.3C158.1 568.3 158.1 568.4 158.1 568.6V568.7C158.1 569.1 158.1 569.6 158.1 570.1C158.1 570.9 158.2 571.4 158.2 571.5C158.2 571.8 158.2 572 158.2 572.3V572.9C158.2 573.8 158.2 574.4 158.1 574.6C158.1 574.8 158.1 574.9 158.1 575.1V575.7C158.1 576.4 158 576.8 157.8 576.8C157.7 576.8 157.6 576.8 157.6 576.8H157.5H157.3C157.2 576.8 157.1 576.8 157 576.8C156.8 576.8 156.7 576.9 156.6 576.9H156.2C155.8 576.9 155.5 576.9 155.4 576.9C155.3 576.8 155.2 576.5 155.2 576V575.7C155.2 575.6 155.2 575.6 155.2 575.5V575.4C155.2 575.3 155.2 575.2 155.2 575.2C155.2 574.8 155.2 574.6 155.2 574.5C155.2 574.4 155.2 573.7 155.1 572.6C155.1 571.7 155.1 571 155.1 570.7C155 570.7 155 570.7 155 570.7H154.8H153.8H153.5C153.5 570.7 153.4 570.7 153.3 570.7H153V572.1C153 572.2 153 572.2 153 572.2V572.4V574.5C153 574.7 153 574.9 153 575.1V575.4V575.6C153 575.9 153 576.2 153 576.6C153 576.7 152.9 576.8 152.8 576.8C152.6 576.8 152.2 576.8 151.7 576.8C151.5 576.7 151.3 576.7 151.3 576.7C150.7 576.7 150.4 576.7 150.2 576.7C150.1 576.7 150.1 576.7 150.1 576.7C150.1 576.6 150.1 576.6 150.1 576.6V576.2V576.1C150.1 575.6 150.1 575.1 150.2 574.7C150.3 574.4 150.3 574 150.3 573.6V572.3C150.3 572.1 150.3 571.8 150.3 571.5C150.3 571.4 150.3 571.4 150.3 571.4C150.2 570.8 150.2 570.5 150.2 570.4V569.5C150.2 569.4 150.2 569.3 150.2 569.3V569V567.8C150.2 567.7 150.2 567.7 150.2 567.6C150.2 567.6 150.2 567.5 150.2 567.4V566.6C150.2 566.5 150.2 566.4 150.2 566.3C150.2 566.2 150.3 565.8 150.3 565C150.3 564.5 150.3 564 150.3 563.7C150.3 563.5 150.3 563.4 150.3 563.4C150.3 563.4 150.3 563.3 150.3 563.2C150.3 563 150.3 562.9 150.3 562.9V562.4C150.3 561.6 150.4 561.2 150.6 561.2H150.7H150.8C151.2 561.1 151.4 561.1 151.6 561.1C152 561.2 152.3 561.2 152.5 561.2H152.8C153.2 561.2 153.4 561.3 153.4 561.5C153.4 561.8 153.4 562.3 153.4 563C153.4 564.2 153.4 565.1 153.4 565.7C153.4 565.8 153.4 565.8 153.4 565.8C153.4 566 153.4 566.2 153.4 566.5V566.6C153.4 566.8 153.4 566.9 153.4 567V567.3C153.4 567.4 153.5 567.4 153.7 567.4C154.2 567.4 154.9 567.4 155.7 567.3V566.5C155.7 566.1 155.7 565.7 155.6 565.5V565.1C155.6 563.7 155.6 562.8 155.6 562.6C155.6 562 155.6 561.6 155.6 561.4C155.7 561.2 155.7 561.1 155.8 561.1C155.8 561.2 156.4 561.2 157 561.1Z" fill="black"/>
<path d="M160.2 561C160.7 561.1 160.9 561.1 161 561.1H161.3C161.4 561.1 161.5 561.1 161.7 561.1C162.1 561 162.5 561 162.8 561C163.2 561 163.3 561.2 163.3 561.5V561.7C163.3 561.8 163.3 561.8 163.3 561.8V562.3V563.6C163.3 564 163.3 564.7 163.3 565.6V565.7C163.3 565.8 163.3 565.9 163.3 566C163.3 566.6 163.2 567.6 163.2 569C163.2 569.7 163.2 570.5 163.2 571.4V571.5C163.2 571.9 163.3 572.7 163.3 574V574.2C163.3 574.2 163.3 574.3 163.3 574.4V574.5C163.3 574.8 163.3 575 163.3 575.1V575.9C163.3 576.6 163.2 576.9 162.9 576.9C162.3 576.9 161.9 576.8 161.7 576.8H161.5C161.3 576.8 161.2 576.8 161.2 576.8C160.7 576.9 160.3 576.9 159.9 576.9C159.7 576.9 159.6 576.8 159.6 576.5V576.2V576.1V576C159.6 575.8 159.6 575.6 159.6 575.5C159.7 575.2 159.7 574.5 159.8 573.5V573.3V573.2C159.8 573.1 159.8 573 159.8 573V572.7C159.8 572.6 159.8 572.5 159.8 572.5C159.8 572.3 159.8 572.2 159.8 572C159.8 571.5 159.8 571 159.7 570.5V570.3L159.6 567.5L159.7 565.5V565.2V565C159.6 563.1 159.5 562.1 159.5 561.8C159.5 561.5 159.5 561.2 159.5 561C159.6 560.9 159.7 560.8 159.8 560.8H160.2V561Z" fill="black"/>
<path d="M167.7 561.1L168.3 561.2V562.3C168.3 562.5 168.3 562.7 168.3 563V563.1C168.3 563.3 168.3 563.4 168.3 563.5V564.1C168.3 564.2 168.3 564.2 168.3 564.3C168.3 564.3 168.3 564.4 168.3 564.5V564.7V564.8V565.4C168.3 565.7 168.4 566.5 168.4 567.8C168.5 568.4 168.5 569 168.5 569.6V570.5C168.5 571.1 168.5 571.8 168.5 572.6L168.6 573.2C169 573.2 169.1 573.2 169.1 573.2C169.8 573.1 170.3 573.1 170.4 573.1C170.6 573.1 171 573.1 171.4 573.2C171.5 573.2 171.7 573.2 171.8 573.2H172.2C172.4 573.2 172.5 573.5 172.5 574C172.4 574.2 172.4 574.4 172.4 574.4C172.4 574.9 172.4 575.6 172.3 576.3C172.3 576.6 172.2 576.8 171.9 576.8H171C170.7 576.8 170.4 576.8 170 576.8C169.9 576.8 169.9 576.8 169.9 576.8C169.9 576.8 169.8 576.8 169.6 576.8H169.5C169.4 576.7 169.2 576.7 169 576.7H168.3C167.9 576.7 167 576.7 165.6 576.8C165.2 576.8 165.1 576.6 165.1 576.5C165.1 576.3 165.1 576.2 165.1 576V575.8V574.2V573.9V573.8C165.1 573.5 165.1 573.3 165.1 573.1C165.1 572.7 165.1 572.6 165.1 572.6C165.1 572.1 165.1 571.7 165.1 571.5V570.4C165.1 570.2 165.1 570 165.1 569.7C165.1 569.7 165.1 569.6 165.1 569.5V569.4V569.3C165.1 568.8 165 568.6 165 568.5V568.2C165 567.8 165 567.3 165 566.7C165 565.6 165 564.7 165 564V563.9C165 563.9 165 563.8 165 563.7V563C165 562.8 165 562.7 165 562.7C165 562.5 165 562.4 165 562.3V561.2C165 561 165.1 560.9 165.3 560.9L166.1 561C166.3 560.9 166.5 560.9 166.7 560.9H167.7V561.1Z" fill="black"/>
<path d="M178.7 561C179.1 561.1 179.4 561.1 179.5 561.1V561.4V562.6C179.5 562.7 179.5 562.9 179.5 563C179.5 563.1 179.5 563.3 179.5 563.4V564.7C179.5 564.9 179.4 565 179.1 565H178.8H178.6H178.4H178.3H178.1C178.1 565 177.9 565 177.6 565H177C177 565 176.9 565.2 176.9 565.4V565.6V565.7L177.1 568.6C177.1 568.7 177.1 568.8 177.1 568.9C177.1 569.2 177.1 569.3 177.2 569.3V569.4C177.3 569.9 177.3 570.2 177.3 570.5C177.3 570.6 177.3 571.1 177.4 571.8C177.4 572 177.4 572.3 177.4 572.7V572.8V572.9V573.4V573.7C177.4 574 177.4 574.2 177.4 574.3V575.1V575.2V575.8C177.4 576.4 177.3 576.7 177 576.7C176.9 576.7 176.7 576.7 176.5 576.8H175.9C175.6 576.8 175.2 576.8 174.8 576.7C174.2 576.7 174 576.5 174 576.2V574.9C174 574.7 174 574.5 174 574.3C174 574.2 174 574.2 174 574.2C174 574.1 174 574 174 573.9V573.8V572.9C174 572.7 174 572.4 174 572.1C174 572 174 571.9 174 571.8C174 571.6 174 571.4 174 571.3V570.8V569.4L173.9 567.8C173.9 567.3 174 566.9 174 566.8C174 566.8 174 566.7 174 566.6C174 566.5 174 566.4 174 566.4V566.1V565C173.7 565 173.2 565 172.5 565H172.1H172C171.8 565 171.7 564.9 171.7 564.8V564.4C171.7 563.8 171.6 563.3 171.6 563.1V562.6V561.5C171.6 561.2 171.7 561.1 172 561.1H172.9C173 561.1 173 561.1 173.1 561.1C173.1 561.1 173.2 561.1 173.3 561.1H173.6H173.7C174.7 561 176.5 561 178.7 561Z" fill="black"/>
<path d="M185.7 560.3C186.4 560.3 187.1 560.6 187.8 561.2C188.9 562.5 189.4 563.5 189.4 564.2C189.5 564.4 189.7 565.4 190 567.3V567.4L190.2 569C190.2 570.1 189.8 571.8 189.1 574.2C188.8 575 188.3 575.6 187.7 576.2C186.8 576.7 186 577 185.2 577C184.1 576.8 183.3 576.5 182.9 576C181.9 574.9 181.1 573.5 180.7 571.8C180.6 571.8 180.4 570.6 180.3 568.3C180.3 567.5 180.5 566.1 180.9 564.1C181.4 562.8 181.8 562 182.2 561.7C182.7 561.2 183.4 560.7 184.4 560.4C184.5 560.4 185 560.3 185.7 560.3ZM183.5 566.8C183.5 566.8 183.5 566.9 183.5 566.8C183.5 567.5 183.5 568 183.5 568.5C183.6 571.5 184.1 573.3 185.1 573.9C185.2 574 185.3 574 185.4 574C185.8 574 186.1 573.8 186.3 573.4C186.7 572.1 186.9 570.7 186.9 569.3C186.9 566.4 186.6 564.6 185.9 563.7C185.5 563.5 185.3 563.4 185.1 563.4H184.9C184.5 563.4 184.2 563.8 183.8 564.5C183.6 566 183.5 566.7 183.5 566.8Z" fill="black"/>
<path d="M193.5 561C194.1 561.1 194.4 561.2 194.4 561.3C194.4 561.6 195.2 563.8 196.8 567.8V567.6C196.7 567 196.7 566.6 196.7 566.3V566C196.8 565.7 196.8 565.6 196.8 565.5V563.7C196.8 563.6 196.8 563.4 196.8 563.3C196.8 563.2 196.8 563 196.8 562.9V561.6C196.8 561.3 197 561.2 197.4 561.2L198.1 561.1C198.4 561.2 198.8 561.2 199.3 561.2H199.4C199.7 561.2 199.8 561.3 199.8 561.5V562V562.1C199.8 563.2 199.7 563.8 199.7 564V564.1C199.7 564.1 199.7 564.2 199.7 564.3V564.6V564.8C199.7 565 199.7 565.1 199.7 565.1C199.7 565.3 199.7 565.5 199.7 565.6V565.7C199.7 565.8 199.7 565.9 199.7 565.9V566.2V566.3C199.7 566.3 199.6 566.5 199.6 566.9V567V567.3C199.6 567.4 199.6 567.4 199.6 567.5C199.6 567.6 199.6 567.6 199.6 567.6C199.7 567.8 199.7 568.5 199.8 569.9C199.8 570 199.8 570.2 199.8 570.4C199.8 570.6 199.8 570.7 199.8 570.8C199.8 571 199.7 571.6 199.7 572.7C199.8 573.4 199.8 574.1 199.8 574.7V575.2C199.8 575.4 199.8 575.7 199.8 576C199.8 576.1 199.8 576.2 199.8 576.4C199.7 576.8 199.6 577 199.3 577H199.2C199 577 198.9 577 198.9 577C198.7 577 198.6 577 198.6 577H198.5H198.4C197.9 577.1 197.5 577.1 197.3 577.1C196.9 577.1 196.7 576.8 196.5 576.1L195.5 572.8C195.2 571.9 194.9 571.1 194.3 570.1C194.2 569.9 194.1 569.8 194 569.8V569.9V570.1C194 570.2 194 570.4 194 570.6C194 570.7 194 570.7 194 570.7C194 570.7 194 570.8 194 570.9V571.2C194 571.7 193.9 572 193.9 572C193.9 572.2 193.9 572.3 193.9 572.5V573C193.9 573.1 193.9 573.7 194 574.8V576C194 576.1 194 576.2 194 576.4V576.7V576.8C194 577.2 193.8 577.4 193.5 577.4H191.8C191.7 577.4 191.5 577.4 191.3 577.4C191.3 577.4 191.2 577.4 191 577.4C190.9 577.4 190.9 577.3 190.9 577.2C190.9 577.1 190.9 577 190.9 576.9C190.9 576.7 190.9 576.5 190.9 576.2C190.9 576.1 190.9 576 190.9 575.9C190.9 575.8 190.9 575.7 190.9 575.5C190.9 575.4 190.9 575.3 190.9 575.3C190.9 575.2 190.9 575.1 190.9 575.1C190.9 574.6 190.9 574.2 190.9 574C190.9 573.9 190.9 573.8 190.9 573.8C190.9 572.6 191 571.8 191 571.6C191 571.5 191 571.5 191 571.5C191 571.3 191 570.9 191 570.3V570.1V569.9L190.8 568.2V568C190.8 567.8 190.8 567.5 190.8 567V566.8C190.8 566.7 190.8 566.7 190.8 566.6C190.8 565.9 190.9 564.7 190.9 563.1V563V562.9C190.9 562.8 190.9 562.8 190.9 562.8L191 562.1C191 562 191 561.9 191 561.8C191.2 561.2 192 561.1 193.5 561Z" fill="black"/>
<path d="M238.421 718.601C239.294 718.601 239.73 718.794 239.73 719.181C240.528 723.022 241.776 727.917 243.472 733.867C244.732 740.327 245.729 744.493 246.465 746.364C246.465 746.563 245.355 746.663 243.135 746.663C242.586 746.613 242.081 746.588 241.62 746.588C241.146 746.688 240.803 746.738 240.591 746.738C240.366 746.738 240.254 746.27 240.254 745.335L239.618 742.772H239.094C238.919 742.772 238.832 742.759 238.832 742.734C238.882 742.759 238.87 742.772 238.795 742.772C238.371 742.772 238.003 742.747 237.691 742.697C236.456 742.759 235.683 742.853 235.371 742.978C235.309 742.94 235.159 742.922 234.922 742.922C234.747 743.383 234.461 744.574 234.062 746.495L233.669 746.645C233.669 746.669 233.107 746.651 231.985 746.588C231.798 746.588 231.368 746.638 230.694 746.738C230.482 746.738 230.039 746.688 229.366 746.588C229.091 746.638 228.842 746.663 228.617 746.663H228.318C228.331 746.663 228.318 746.62 228.281 746.532L228.917 743.67C229.179 743.67 229.565 741.762 230.077 737.945C230.201 737.795 230.526 736.455 231.049 733.923C231.049 733.287 231.474 731.497 232.322 728.554C232.571 726.246 233.12 723.546 233.968 720.453C233.968 719.318 234.205 718.75 234.679 718.75C235.003 718.75 235.502 718.775 236.176 718.825C237.535 718.675 238.283 718.601 238.421 718.601ZM236.849 732.37C236.225 735.513 235.914 737.315 235.914 737.777C237.049 737.665 237.859 737.608 238.346 737.608L237.298 732.37H236.849ZM256.025 718.002C258.619 718.002 260.484 718.856 261.619 720.565C262.367 721.164 262.966 722.685 263.415 725.13C263.477 726.115 263.608 726.608 263.808 726.608C263.646 726.945 263.565 727.107 263.565 727.094L263.639 727.543C263.639 728.703 262.947 730.3 261.563 732.333C261.476 732.333 261.345 732.426 261.17 732.613V732.464C262.168 733.461 262.86 734.522 263.247 735.644C263.509 736.729 263.689 737.833 263.789 738.955L263.714 739.404V739.517L263.789 739.984C263.128 742.828 262.143 744.749 260.833 745.747C259.948 746.457 258.831 746.975 257.484 747.299C257.435 747.299 257.279 747.324 257.017 747.374C253.375 747.374 250.762 745.715 249.178 742.398C248.766 740.876 248.511 739.629 248.411 738.656C248.411 737.159 248.754 736.411 249.44 736.411H249.964C249.826 736.411 249.758 736.33 249.758 736.168C250.095 736.33 250.263 736.411 250.263 736.411C250.724 736.411 251.099 736.436 251.385 736.486C251.735 736.436 252.209 736.411 252.807 736.411C253.294 736.411 253.562 736.748 253.612 737.421C253.612 740.053 254.204 741.593 255.389 742.042C255.888 742.279 256.349 742.398 256.774 742.398C257.247 742.398 257.74 741.942 258.251 741.032C258.476 740.695 258.588 740.564 258.588 740.639H258.289C258.538 740.228 258.688 739.485 258.738 738.413C258.738 737.191 258.251 736.068 257.279 735.045C256.443 734.634 255.9 734.428 255.651 734.428H254.978C254.491 734.428 254.248 734.21 254.248 733.773C254.198 732.551 254.173 731.877 254.173 731.753C254.173 730.917 254.516 730.499 255.202 730.499C256.861 730.499 257.99 729.676 258.588 728.03C258.738 726.708 258.813 725.99 258.813 725.878C258.364 724.095 257.84 723.203 257.241 723.203C257.241 723.103 257.148 723.028 256.961 722.978C255.402 722.978 254.385 723.851 253.911 725.598C253.886 725.598 253.849 725.76 253.799 726.084H254.005L253.761 726.589V727.244L253.855 728.385L253.2 728.516H251.311C251.248 728.516 250.855 728.566 250.132 728.666H249.739C249.203 728.666 248.935 728.323 248.935 727.637V726.215C248.935 724.357 249.677 722.28 251.161 719.985C252.483 718.663 254.104 718.002 256.025 718.002ZM274.135 717.085C276.467 717.085 278.469 718.226 280.14 720.509C281.313 722.741 281.899 724.662 281.899 726.271C281.899 728.541 281.225 730.543 279.878 732.276V732.22C280.726 733.019 281.35 734.359 281.749 736.243C281.849 736.866 281.924 737.615 281.974 738.488C281.562 741.082 280.895 743.028 279.972 744.325C278.226 746.295 276.305 747.281 274.21 747.281L274.079 747.225L273.63 747.281C272.245 747.281 270.636 746.688 268.803 745.503C267.232 743.982 266.446 742.89 266.446 742.229C265.997 741.556 265.772 740.801 265.772 739.966V738.095C265.772 736.311 266.371 734.528 267.568 732.744C268.167 732.245 268.466 731.99 268.466 731.977C267.643 730.842 267.044 729.271 266.67 727.263V725.878C266.932 723.159 267.288 721.8 267.737 721.8C268.597 719.954 269.788 718.644 271.31 717.871C272.42 717.347 273.337 717.085 274.06 717.085H274.135ZM271.871 726.421C271.871 727.967 272.457 729.146 273.63 729.957L274.303 730.031H274.509C275.295 730.031 275.875 729.402 276.249 728.142C276.399 727.344 276.473 726.62 276.473 725.972V725.766C276.162 723.646 275.513 722.586 274.528 722.586C274.528 722.498 274.372 722.448 274.06 722.436H273.985C273.212 722.436 272.551 723.265 272.002 724.924C271.915 725.248 271.871 725.411 271.871 725.411V726.421ZM271.871 738.693C271.871 740.302 272.326 741.419 273.237 742.042C273.524 742.217 273.773 742.304 273.985 742.304H274.135C274.634 742.304 275.126 741.955 275.613 741.257C275.925 740.433 276.137 739.523 276.249 738.525C276.249 735.681 275.544 734.26 274.135 734.26C273.212 734.26 272.507 735.158 272.021 736.954C271.921 737.552 271.871 737.852 271.871 737.852V738.693Z" fill="black"/>
</g>
<defs>
<clipPath id="clip0_1_3">
<rect width="1323.1" height="846.1" fill="white"/>
</clipPath>
</defs>
</svg>
