<svg width="216" height="40" viewBox="0 0 216 40" fill="none" xmlns="http://www.w3.org/2000/svg">
<g id="Logo">
<g id="Vector">
<path fill-rule="evenodd" clip-rule="evenodd" d="M21.8208 12.7985L17.1306 6.97823V9.31478C17.1306 9.85558 17.3445 12.154 16.061 13.5736C15.2735 14.4446 14.106 14.8327 13.708 15.3988C13.1376 16.21 13.2802 17.0212 13.2802 17.8883V37.3564C13.8556 37.5051 14.5127 37.3783 14.9894 36.8831L20.9992 30.6388C21.4419 30.1788 22.1234 29.9996 22.7528 30.1777L31.2965 32.5956C32.7746 33.0139 34.0361 31.5104 33.2736 30.2391L28.8667 22.8908C28.542 22.3494 28.5729 21.6796 28.9461 21.1671L34.0118 14.2109C34.8882 13.0074 33.7697 11.4054 32.2588 11.7L23.5254 13.4027C22.8819 13.5282 22.2196 13.2934 21.8208 12.7985ZM5.57936 23.6983L5.57936 18.5193L2.81279 19.4419C1.35764 19.9272 1.26925 21.8465 2.67425 22.4501L5.57936 23.6983Z" fill="#B8252F"/>
<path d="M16.3243 37.8776C14.2474 40.1425 10.2855 38.6799 10.2854 35.6787C10.2852 28.7359 10.2855 23.3556 10.2855 16.4128C10.2855 13.9792 11.2128 13.2691 12.2106 12.5596C13.0662 11.9512 14.1358 11.5456 14.1358 9.63373V2.4302C14.1358 1.62745 14.4531 1.4056 14.9914 1.4056C15.5298 1.4056 15.8471 1.62745 15.8471 2.4302V9.63373C15.8471 11.5456 15.6332 12.3568 14.1358 13.3708C12.6384 14.3848 11.9968 14.7904 11.9968 16.4128C11.9968 23.4938 11.9946 28.6866 11.9968 35.6787C11.9968 36.8955 13.9497 37.9634 14.9894 36.8831L20.9992 30.6388C21.4419 30.1788 22.1234 29.9996 22.7528 30.1777L31.2965 32.5956C32.7746 33.0139 34.0361 31.5104 33.2736 30.2391L28.8667 22.8908C28.542 22.3494 28.5729 21.6796 28.9461 21.1671L34.0118 14.2109C34.8882 13.0074 33.7697 11.4054 32.2588 11.7L23.5254 13.4027C22.8819 13.5282 22.2196 13.2934 21.8208 12.7985L17.1306 6.98258L17.1628 4.5625L21.7674 10.3021C23.0945 11.9562 23.1923 11.7946 24.6977 11.4896C27.52 10.9177 30.8794 10.3148 31.638 10.1795C31.744 10.1606 31.8489 10.1387 31.9548 10.1201C34.9588 9.59102 37.1626 12.8343 35.3342 15.2203L31.186 20.9896C30.3788 22.043 30.4788 22.2485 31.186 23.3646L34.6838 29.3428C36.3141 31.9154 33.7032 35.0272 30.6925 34.0999L23.8605 32.0729C22.5543 31.6706 22.2499 31.4861 21.3488 32.4688L16.3243 37.8776Z" fill="#292929"/>
<path d="M3.86808 1.4056C4.4064 1.4056 4.72373 1.62745 4.72373 2.4302V9.63373C4.72373 11.5456 5.79328 11.9512 6.64893 12.5596C7.64677 13.2691 8.57402 13.9792 8.57402 16.4128L8.57413 36.8636C8.57411 37.6748 8.25345 37.8775 7.71857 37.8776C7.18362 37.8777 6.86273 37.6748 6.86273 36.8636V16.4128C6.86273 14.7904 6.2211 14.3848 4.72373 13.3708C3.22635 12.3568 3.01244 11.5456 3.01244 9.63373V2.4302C3.01244 1.62745 3.32976 1.4056 3.86808 1.4056Z" fill="#292929"/>
<path d="M2.37343 17.8869C-0.645648 18.8166 -0.832211 22.7893 2.08823 23.9601L5.57937 25.3562V23.6973L2.67603 22.4486C1.26793 21.8459 1.35807 19.9265 2.81731 19.4402L5.57937 18.5219L5.57936 16.8992L2.37343 17.8869Z" fill="#292929"/>
<path d="M7.71847 1C8.25679 0.999988 8.57413 1.20477 8.57413 2.0246V9.6988C8.57413 10.5273 8.25339 10.7344 7.71849 10.7344C7.18359 10.7344 6.86285 10.5273 6.86285 9.6988V2.0246C6.86285 1.20477 7.18016 1.00001 7.71847 1Z" fill="#292929"/>
<path d="M11.1411 1C11.6794 0.999996 11.9967 1.20477 11.9967 2.0246V9.6988C11.9967 10.5273 11.676 10.7344 11.1411 10.7344C10.6062 10.7344 10.2854 10.5273 10.2854 9.6988V2.0246C10.2854 1.20477 10.6027 1 11.1411 1Z" fill="#292929"/>
</g>
<g id="Restaurant Guru">
<path d="M48 20.7721V5.21273H53.8087C54.9987 5.21273 55.9971 5.42039 56.8039 5.83571C57.6157 6.25103 58.2283 6.83349 58.6418 7.5831C59.0603 8.32764 59.2696 9.19627 59.2696 10.189C59.2696 11.1868 59.0578 12.0529 58.6342 12.7873C58.2157 13.5166 57.598 14.0814 56.7812 14.4815C55.9643 14.8765 54.9609 15.0741 53.7709 15.0741H49.6337V12.7341H53.3928C54.0886 12.7341 54.6584 12.6379 55.1021 12.4454C55.5458 12.2479 55.8736 11.9617 56.0854 11.5869C56.3022 11.207 56.4106 10.7411 56.4106 10.189C56.4106 9.63691 56.3022 9.16588 56.0854 8.77588C55.8685 8.38082 55.5383 8.08199 55.0945 7.87939C54.6508 7.67173 54.0785 7.5679 53.3776 7.5679H50.806V20.7721H48ZM56.0022 13.7217L59.8368 20.7721H56.7056L52.9389 13.7217H56.0022Z" fill="#292929"/>
<path d="M66.4527 21C65.2879 21 64.2819 20.7569 63.4348 20.2707C62.5928 19.7794 61.9448 19.0855 61.491 18.189C61.0372 17.2874 60.8103 16.2263 60.8103 15.0057C60.8103 13.8053 61.0372 12.7518 61.491 11.8452C61.9499 10.9335 62.5903 10.2244 63.4121 9.71795C64.234 9.20639 65.1996 8.95062 66.309 8.95062C67.025 8.95062 67.7006 9.06711 68.336 9.30009C68.9763 9.52802 69.5411 9.88256 70.0302 10.3637C70.5243 10.8449 70.9126 11.4577 71.195 12.2023C71.4773 12.9418 71.6185 13.823 71.6185 14.8462V15.6895H62.0961V13.8357H68.994C68.9889 13.309 68.8755 12.8405 68.6536 12.4302C68.4318 12.0149 68.1217 11.6882 67.7233 11.4501C67.33 11.2121 66.8712 11.0931 66.3468 11.0931C65.7871 11.0931 65.2955 11.2298 64.8719 11.5033C64.4483 11.7718 64.1181 12.1263 63.8811 12.567C63.6491 13.0025 63.5306 13.4812 63.5256 14.0028V15.6211C63.5256 16.2998 63.6491 16.8822 63.8962 17.3685C64.1433 17.8496 64.4887 18.2194 64.9324 18.4777C65.3761 18.7309 65.8955 18.8575 66.4905 18.8575C66.8888 18.8575 67.2494 18.8018 67.5721 18.6904C67.8948 18.5739 68.1746 18.4042 68.4116 18.1814C68.6486 17.9585 68.8276 17.6825 68.9486 17.3533L71.5051 17.642C71.3437 18.3207 71.0361 18.9133 70.5823 19.4198C70.1336 19.9212 69.5587 20.3112 68.8578 20.5897C68.157 20.8632 67.3552 21 66.4527 21Z" fill="#292929"/>
<path d="M82.8613 12.1871L80.3654 12.4606C80.2948 12.2073 80.1712 11.9693 79.9947 11.7464C79.8233 11.5236 79.5914 11.3438 79.2989 11.207C79.0064 11.0703 78.6484 11.0019 78.2249 11.0019C77.6551 11.0019 77.1761 11.126 76.7878 11.3742C76.4046 11.6223 76.2155 11.944 76.2206 12.339C76.2155 12.6784 76.3391 12.9544 76.5912 13.1671C76.8483 13.3799 77.2719 13.5546 77.8618 13.6914L79.8435 14.1168C80.9427 14.3549 81.7596 14.7322 82.294 15.2488C82.8336 15.7654 83.1059 16.4416 83.1109 17.2773C83.1059 18.0117 82.8916 18.66 82.468 19.2222C82.0495 19.7794 81.4671 20.2149 80.7208 20.529C79.9746 20.843 79.1174 21 78.1493 21C76.7273 21 75.5827 20.7012 74.7154 20.1035C73.8482 19.5008 73.3313 18.6626 73.1649 17.5888L75.8348 17.3305C75.9558 17.8572 76.213 18.2548 76.6063 18.5233C76.9996 18.7917 77.5114 18.9259 78.1417 18.9259C78.7922 18.9259 79.314 18.7917 79.7073 18.5233C80.1057 18.2548 80.3048 17.9231 80.3048 17.528C80.3048 17.1937 80.1763 16.9177 79.9191 16.6999C79.667 16.4821 79.2737 16.315 78.7392 16.1985L76.7576 15.7806C75.6432 15.5476 74.8188 15.1551 74.2843 14.603C73.7498 14.0459 73.4851 13.3419 73.4902 12.491C73.4851 11.7718 73.6792 11.1488 74.0725 10.622C74.4709 10.0902 75.023 9.67996 75.7289 9.39126C76.4399 9.0975 77.2593 8.95062 78.1871 8.95062C79.5485 8.95062 80.62 9.24185 81.4016 9.82431C82.1882 10.4068 82.6747 11.1944 82.8613 12.1871Z" fill="#292929"/>
<path d="M90.9142 9.10256V11.2298H84.2356V9.10256H90.9142ZM85.8845 6.30674H88.6225V17.2621C88.6225 17.6318 88.6779 17.9155 88.7889 18.113C88.9048 18.3055 89.0561 18.4372 89.2427 18.5081C89.4292 18.579 89.636 18.6144 89.8629 18.6144C90.0343 18.6144 90.1906 18.6018 90.3318 18.5764C90.478 18.5511 90.589 18.5283 90.6646 18.5081L91.126 20.6581C90.9797 20.7088 90.7705 20.7645 90.4982 20.8253C90.231 20.886 89.9032 20.9215 89.5149 20.9316C88.8292 20.9519 88.2115 20.8481 87.6619 20.6201C87.1123 20.3871 86.6761 20.0275 86.3534 19.5413C86.0358 19.0551 85.8794 18.4473 85.8845 17.7179V6.30674Z" fill="#292929"/>
<path d="M97.1348 20.9772C96.2222 20.9772 95.4053 20.7417 94.6843 20.2707C93.9632 19.7996 93.3934 19.1159 92.9749 18.2194C92.5564 17.3229 92.3471 16.2339 92.3471 14.9525C92.3471 13.6559 92.5589 12.5619 92.9825 11.6705C93.4111 10.774 93.9884 10.0978 94.7145 9.64198C95.4406 9.18107 96.2499 8.95062 97.1424 8.95062C97.8231 8.95062 98.3828 9.06711 98.8215 9.30009C99.2602 9.52802 99.6081 9.80405 99.8652 10.1282C100.122 10.4473 100.322 10.7487 100.463 11.0323H100.576V9.10256H103.322V20.7721H100.629V18.9335H100.463C100.322 19.2172 100.117 19.5185 99.8501 19.8376C99.5829 20.1516 99.2299 20.4201 98.7912 20.6429C98.3525 20.8658 97.8004 20.9772 97.1348 20.9772ZM97.8987 18.7208C98.4786 18.7208 98.9728 18.5638 99.3812 18.2498C99.7896 17.9307 100.1 17.4875 100.311 16.9202C100.523 16.353 100.629 15.692 100.629 14.9373C100.629 14.1827 100.523 13.5267 100.311 12.9696C100.105 12.4125 99.7972 11.9794 99.3887 11.6705C98.9854 11.3615 98.4887 11.207 97.8987 11.207C97.2886 11.207 96.7793 11.3666 96.3709 11.6857C95.9625 12.0047 95.6549 12.4454 95.4482 13.0076C95.2414 13.5698 95.1381 14.213 95.1381 14.9373C95.1381 15.6667 95.2414 16.3175 95.4482 16.8898C95.66 17.4571 95.9701 17.9053 96.3785 18.2346C96.792 18.5587 97.2987 18.7208 97.8987 18.7208Z" fill="#292929"/>
<path d="M113.388 15.8642V9.10256H116.126V20.7721H113.472V18.698H113.351C113.088 19.3514 112.657 19.8857 112.057 20.301C111.462 20.7164 110.729 20.924 109.856 20.924C109.095 20.924 108.422 20.7544 107.837 20.415C107.257 20.0706 106.803 19.5717 106.475 18.9183C106.148 18.2599 105.984 17.4647 105.984 16.5328V9.10256H108.722V16.1073C108.722 16.8468 108.923 17.4343 109.327 17.8699C109.73 18.3055 110.26 18.5233 110.915 18.5233C111.319 18.5233 111.709 18.4245 112.087 18.227C112.466 18.0294 112.776 17.7357 113.018 17.3457C113.265 16.9506 113.388 16.4568 113.388 15.8642Z" fill="#292929"/>
<path d="M118.686 20.7721V9.10256H121.341V11.0475H121.462C121.674 10.3739 122.037 9.8547 122.551 9.49003C123.071 9.12029 123.663 8.93542 124.329 8.93542C124.48 8.93542 124.649 8.94302 124.835 8.95821C125.027 8.96834 125.186 8.98607 125.312 9.0114V11.5413C125.196 11.5008 125.012 11.4653 124.76 11.4349C124.513 11.3995 124.273 11.3818 124.041 11.3818C123.542 11.3818 123.093 11.4907 122.695 11.7085C122.302 11.9212 121.992 12.2175 121.765 12.5973C121.538 12.9772 121.424 13.4153 121.424 13.9117V20.7721H118.686Z" fill="#292929"/>
<path d="M130.708 20.9772C129.795 20.9772 128.979 20.7417 128.258 20.2707C127.537 19.7996 126.967 19.1159 126.548 18.2194C126.13 17.3229 125.92 16.2339 125.92 14.9525C125.92 13.6559 126.132 12.5619 126.556 11.6705C126.984 10.774 127.562 10.0978 128.288 9.64198C129.014 9.18107 129.823 8.95062 130.716 8.95062C131.396 8.95062 131.956 9.06711 132.395 9.30009C132.833 9.52802 133.181 9.80405 133.439 10.1282C133.696 10.4473 133.895 10.7487 134.036 11.0323H134.15V9.10256H136.895V20.7721H134.202V18.9335H134.036C133.895 19.2172 133.691 19.5185 133.423 19.8376C133.156 20.1516 132.803 20.4201 132.365 20.6429C131.926 20.8658 131.374 20.9772 130.708 20.9772ZM131.472 18.7208C132.052 18.7208 132.546 18.5638 132.954 18.2498C133.363 17.9307 133.673 17.4875 133.885 16.9202C134.097 16.353 134.202 15.692 134.202 14.9373C134.202 14.1827 134.097 13.5267 133.885 12.9696C133.678 12.4125 133.37 11.9794 132.962 11.6705C132.559 11.3615 132.062 11.207 131.472 11.207C130.862 11.207 130.353 11.3666 129.944 11.6857C129.536 12.0047 129.228 12.4454 129.021 13.0076C128.815 13.5698 128.711 14.213 128.711 14.9373C128.711 15.6667 128.815 16.3175 129.021 16.8898C129.233 17.4571 129.543 17.9053 129.952 18.2346C130.365 18.5587 130.872 18.7208 131.472 18.7208Z" fill="#292929"/>
<path d="M142.295 13.9345V20.7721H139.557V9.10256H142.174V11.0855H142.31C142.577 10.4321 143.003 9.91295 143.588 9.52802C144.178 9.14308 144.907 8.95062 145.774 8.95062C146.576 8.95062 147.274 9.12282 147.869 9.46724C148.469 9.81165 148.933 10.3105 149.261 10.9639C149.594 11.6173 149.758 12.4099 149.753 13.3419V20.7721H147.015V13.7673C147.015 12.9873 146.813 12.377 146.41 11.9364C146.011 11.4957 145.459 11.2754 144.753 11.2754C144.274 11.2754 143.848 11.3818 143.475 11.5945C143.107 11.8022 142.817 12.1035 142.605 12.4986C142.398 12.8936 142.295 13.3723 142.295 13.9345Z" fill="#292929"/>
<path d="M158.082 9.10256V11.2298H151.403V9.10256H158.082ZM153.052 6.30674H155.79V17.2621C155.79 17.6318 155.845 17.9155 155.956 18.113C156.072 18.3055 156.223 18.4372 156.41 18.5081C156.597 18.579 156.803 18.6144 157.03 18.6144C157.202 18.6144 157.358 18.6018 157.499 18.5764C157.645 18.5511 157.756 18.5283 157.832 18.5081L158.293 20.6581C158.147 20.7088 157.938 20.7645 157.666 20.8253C157.398 20.886 157.071 20.9215 156.682 20.9316C155.997 20.9519 155.379 20.8481 154.829 20.6201C154.28 20.3871 153.844 20.0275 153.521 19.5413C153.203 19.0551 153.047 18.4473 153.052 17.7179V6.30674Z" fill="#292929"/>
<path d="M175.641 10.1814C175.515 9.77113 175.341 9.40393 175.12 9.07977C174.903 8.75055 174.641 8.46945 174.333 8.23647C174.03 8.00348 173.683 7.82874 173.289 7.71225C172.896 7.59069 172.467 7.52992 172.003 7.52992C171.171 7.52992 170.43 7.74011 169.78 8.16049C169.129 8.58088 168.618 9.1988 168.244 10.0142C167.876 10.8246 167.692 11.8123 167.692 12.9772C167.692 14.1523 167.876 15.1475 168.244 15.963C168.612 16.7784 169.124 17.3989 169.78 17.8243C170.435 18.2447 171.197 18.4549 172.064 18.4549C172.851 18.4549 173.531 18.3029 174.106 17.9991C174.686 17.6952 175.132 17.2646 175.445 16.7075C175.757 16.1453 175.914 15.4869 175.914 14.7322L176.549 14.831H172.344V12.6277H178.629V14.4967C178.629 15.8287 178.347 16.981 177.782 17.9535C177.217 18.9259 176.441 19.6755 175.452 20.2023C174.464 20.724 173.33 20.9848 172.049 20.9848C170.622 20.9848 169.369 20.6632 168.29 20.0199C167.216 19.3716 166.376 18.4524 165.771 17.2621C165.171 16.0668 164.871 14.6486 164.871 13.0076C164.871 11.7515 165.048 10.6296 165.401 9.64198C165.759 8.65432 166.258 7.81608 166.898 7.12726C167.538 6.43336 168.29 5.90662 169.152 5.54701C170.014 5.18234 170.952 5 171.966 5C172.823 5 173.622 5.12662 174.363 5.37987C175.104 5.62805 175.762 5.98259 176.337 6.4435C176.917 6.9044 177.394 7.45141 177.767 8.08452C178.14 8.71763 178.384 9.41659 178.5 10.1814H175.641Z" fill="#292929"/>
<path d="M188.37 15.8642V9.10256H191.108V20.7721H188.454V18.698H188.333C188.07 19.3514 187.639 19.8857 187.039 20.301C186.444 20.7164 185.711 20.924 184.838 20.924C184.077 20.924 183.404 20.7544 182.819 20.415C182.239 20.0706 181.785 19.5717 181.457 18.9183C181.13 18.2599 180.966 17.4647 180.966 16.5328V9.10256H183.704V16.1073C183.704 16.8468 183.905 17.4343 184.309 17.8699C184.712 18.3055 185.242 18.5233 185.897 18.5233C186.301 18.5233 186.691 18.4245 187.07 18.227C187.448 18.0294 187.758 17.7357 188 17.3457C188.247 16.9506 188.37 16.4568 188.37 15.8642Z" fill="#292929"/>
<path d="M193.668 20.7721V9.10256H196.323V11.0475H196.444C196.656 10.3739 197.019 9.8547 197.533 9.49003C198.053 9.12029 198.645 8.93542 199.311 8.93542C199.462 8.93542 199.631 8.94302 199.817 8.95821C200.009 8.96834 200.168 8.98607 200.294 9.0114V11.5413C200.178 11.5008 199.994 11.4653 199.742 11.4349C199.495 11.3995 199.255 11.3818 199.023 11.3818C198.524 11.3818 198.075 11.4907 197.677 11.7085C197.284 11.9212 196.974 12.2175 196.747 12.5973C196.52 12.9772 196.406 13.4153 196.406 13.9117V20.7721H193.668Z" fill="#292929"/>
<path d="M209.262 15.8642V9.10256H212V20.7721H209.345V18.698H209.224C208.962 19.3514 208.531 19.8857 207.931 20.301C207.336 20.7164 206.602 20.924 205.73 20.924C204.968 20.924 204.295 20.7544 203.71 20.415C203.131 20.0706 202.677 19.5717 202.349 18.9183C202.021 18.2599 201.857 17.4647 201.857 16.5328V9.10256H204.595V16.1073C204.595 16.8468 204.797 17.4343 205.2 17.8699C205.604 18.3055 206.133 18.5233 206.789 18.5233C207.192 18.5233 207.583 18.4245 207.961 18.227C208.339 18.0294 208.649 17.7357 208.891 17.3457C209.138 16.9506 209.262 16.4568 209.262 15.8642Z" fill="#292929"/>
</g>
<g id="Explore all restaurants worldwide">
<path d="M48 33.1863V25.3152H52.9022V26.3375H49.1797V28.7357H52.6464V29.7542H49.1797V32.1639H52.948V33.1863H48Z" fill="#292929"/>
<path d="M55.1262 27.2829L56.4205 29.5812L57.7262 27.2829H58.9747L57.1459 30.2346L58.9899 33.1863H57.7415L56.4205 30.9802L55.1033 33.1863H53.851L55.676 30.2346L53.8739 27.2829H55.1262Z" fill="#292929"/>
<path d="M59.9855 35.4V27.2829H61.1003V28.2399H61.1958C61.2619 28.1169 61.3574 27.9747 61.4821 27.8133C61.6068 27.6519 61.7799 27.511 62.0013 27.3905C62.2228 27.2676 62.5155 27.2061 62.8795 27.2061C63.3529 27.2061 63.7754 27.3265 64.147 27.5673C64.5186 27.8082 64.8101 28.1554 65.0213 28.6089C65.2351 29.0624 65.342 29.6081 65.342 30.2461C65.342 30.8841 65.2364 31.4311 65.0251 31.8872C64.8139 32.3407 64.5237 32.6905 64.1547 32.9364C63.7856 33.1798 63.3643 33.3016 62.8909 33.3016C62.5346 33.3016 62.2431 33.2413 62.0166 33.1209C61.7926 33.0005 61.617 32.8596 61.4897 32.6982C61.3625 32.5367 61.2645 32.3932 61.1958 32.2677H61.127V35.4H59.9855ZM61.1041 30.2346C61.1041 30.6497 61.1639 31.0135 61.2836 31.3261C61.4032 31.6387 61.5763 31.8834 61.8028 32.0602C62.0293 32.2344 62.3068 32.3215 62.6351 32.3215C62.9762 32.3215 63.2613 32.2305 63.4903 32.0486C63.7194 31.8642 63.8925 31.6143 64.0096 31.2992C64.1292 30.984 64.189 30.6292 64.189 30.2346C64.189 29.8451 64.1305 29.4954 64.0134 29.1854C63.8989 28.8753 63.7258 28.6306 63.4942 28.4513C63.2651 28.2719 62.9787 28.1823 62.6351 28.1823C62.3042 28.1823 62.0243 28.2681 61.7952 28.4398C61.5686 28.6114 61.3968 28.851 61.2798 29.1585C61.1627 29.4659 61.1041 29.8246 61.1041 30.2346Z" fill="#292929"/>
<path d="M67.6013 25.3152V33.1863H66.4598V25.3152H67.6013Z" fill="#292929"/>
<path d="M71.446 33.3054C70.8962 33.3054 70.4164 33.1786 70.0066 32.9249C69.5969 32.6712 69.2787 32.3164 69.0522 31.8603C68.8256 31.4042 68.7124 30.8713 68.7124 30.2615C68.7124 29.6491 68.8256 29.1136 69.0522 28.655C69.2787 28.1964 69.5969 27.8402 70.0066 27.5865C70.4164 27.3329 70.8962 27.2061 71.446 27.2061C71.9958 27.2061 72.4756 27.3329 72.8854 27.5865C73.2951 27.8402 73.6133 28.1964 73.8398 28.655C74.0664 29.1136 74.1796 29.6491 74.1796 30.2615C74.1796 30.8713 74.0664 31.4042 73.8398 31.8603C73.6133 32.3164 73.2951 32.6712 72.8854 32.9249C72.4756 33.1786 71.9958 33.3054 71.446 33.3054ZM71.4498 32.3407C71.8062 32.3407 72.1014 32.2459 72.3356 32.0563C72.5697 31.8667 72.7428 31.6143 72.8548 31.2992C72.9694 30.984 73.0266 30.6369 73.0266 30.2576C73.0266 29.881 72.9694 29.5351 72.8548 29.22C72.7428 28.9022 72.5697 28.6473 72.3356 28.4551C72.1014 28.263 71.8062 28.1669 71.4498 28.1669C71.0909 28.1669 70.7931 28.263 70.5564 28.4551C70.3223 28.6473 70.1479 28.9022 70.0334 29.22C69.9214 29.5351 69.8654 29.881 69.8654 30.2576C69.8654 30.6369 69.9214 30.984 70.0334 31.2992C70.1479 31.6143 70.3223 31.8667 70.5564 32.0563C70.7931 32.2459 71.0909 32.3407 71.4498 32.3407Z" fill="#292929"/>
<path d="M75.2926 33.1863V27.2829H76.396V28.2207H76.4571C76.564 27.903 76.7523 27.6532 77.0221 27.4712C77.2945 27.2868 77.6024 27.1945 77.946 27.1945C78.0173 27.1945 78.1013 27.1971 78.198 27.2022C78.2973 27.2073 78.3749 27.2137 78.4309 27.2214V28.3206C78.3851 28.3078 78.3037 28.2937 78.1866 28.2783C78.0695 28.2604 77.9524 28.2514 77.8353 28.2514C77.5655 28.2514 77.325 28.3091 77.1137 28.4244C76.905 28.5371 76.7396 28.6947 76.6174 28.8971C76.4952 29.097 76.4342 29.325 76.4342 29.5812V33.1863H75.2926Z" fill="#292929"/>
<path d="M81.575 33.3054C80.9972 33.3054 80.4996 33.1811 80.0822 32.9326C79.6673 32.6815 79.3466 32.3292 79.1201 31.8757C78.8961 31.4196 78.7841 30.8854 78.7841 30.273C78.7841 29.6683 78.8961 29.1354 79.1201 28.6742C79.3466 28.213 79.6622 27.853 80.0669 27.5942C80.4742 27.3355 80.9502 27.2061 81.4948 27.2061C81.8257 27.2061 82.1464 27.2611 82.457 27.3713C82.7675 27.4815 83.0462 27.6544 83.2931 27.8902C83.54 28.1259 83.7347 28.4321 83.8772 28.8087C84.0198 29.1828 84.091 29.6376 84.091 30.1731V30.5805H79.4293V29.7196H82.9724C82.9724 29.4172 82.9113 29.1495 82.7891 28.9163C82.6669 28.6806 82.4951 28.4949 82.2737 28.3591C82.0548 28.2233 81.7977 28.1554 81.5025 28.1554C81.1818 28.1554 80.9018 28.2348 80.6625 28.3936C80.4258 28.5499 80.2426 28.7549 80.1128 29.0086C79.9855 29.2597 79.9219 29.5325 79.9219 29.8272V30.4998C79.9219 30.8944 79.9906 31.23 80.128 31.5067C80.268 31.7834 80.4627 31.9948 80.7122 32.1409C80.9616 32.2844 81.253 32.3561 81.5865 32.3561C81.8028 32.3561 82.0001 32.3254 82.1782 32.2639C82.3564 32.1998 82.5104 32.105 82.6402 31.9795C82.77 31.8539 82.8693 31.6989 82.938 31.5144L84.0185 31.7104C83.932 32.0307 83.7767 32.3113 83.5527 32.5521C83.3313 32.7904 83.0526 32.9762 82.7166 33.1094C82.3831 33.2401 82.0026 33.3054 81.575 33.3054Z" fill="#292929"/>
<path d="M89.587 33.3169C89.2154 33.3169 88.8794 33.2477 88.5791 33.1094C88.2787 32.9685 88.0407 32.7648 87.8651 32.4983C87.692 32.2318 87.6055 31.9051 87.6055 31.5183C87.6055 31.1852 87.6691 30.911 87.7964 30.6958C87.9237 30.4806 88.0955 30.3102 88.3118 30.1846C88.5282 30.0591 88.77 29.9643 89.0372 29.9002C89.3045 29.8362 89.5768 29.7875 89.8543 29.7542C90.2055 29.7132 90.4906 29.6799 90.7095 29.6542C90.9284 29.6261 91.0875 29.5812 91.1867 29.5197C91.286 29.4582 91.3356 29.3583 91.3356 29.22V29.1931C91.3356 28.8574 91.2414 28.5973 91.0531 28.4129C90.8673 28.2284 90.5898 28.1361 90.2208 28.1361C89.8364 28.1361 89.5336 28.222 89.3121 28.3936C89.0932 28.5627 88.9418 28.7511 88.8578 28.9586L87.7849 28.7126C87.9122 28.3539 88.098 28.0644 88.3424 27.8441C88.5893 27.6211 88.8731 27.4597 89.1938 27.3598C89.5145 27.2573 89.8517 27.2061 90.2055 27.2061C90.4397 27.2061 90.6878 27.2342 90.95 27.2906C91.2147 27.3444 91.4616 27.4443 91.6907 27.5904C91.9223 27.7364 92.1119 27.9453 92.2596 28.2169C92.4072 28.4859 92.481 28.8356 92.481 29.2661V33.1863H91.3662V32.3792H91.3203C91.2465 32.5278 91.1358 32.6738 90.9882 32.8173C90.8406 32.9608 90.6509 33.0799 90.4193 33.1747C90.1877 33.2695 89.9103 33.3169 89.587 33.3169ZM89.8352 32.3945C90.1508 32.3945 90.4206 32.3318 90.6446 32.2062C90.8711 32.0807 91.0429 31.9167 91.16 31.7143C91.2796 31.5093 91.3394 31.2902 91.3394 31.0571V30.2961C91.2987 30.3371 91.2198 30.3755 91.1027 30.4114C90.9882 30.4447 90.8571 30.4742 90.7095 30.4998C90.5618 30.5228 90.418 30.5446 90.278 30.5651C90.1381 30.5831 90.021 30.5984 89.9268 30.6112C89.7054 30.6394 89.503 30.6868 89.3198 30.7534C89.139 30.8201 88.994 30.9161 88.8845 31.0417C88.7776 31.1647 88.7242 31.3287 88.7242 31.5336C88.7242 31.818 88.8285 32.0333 89.0372 32.1793C89.2459 32.3228 89.5119 32.3945 89.8352 32.3945Z" fill="#292929"/>
<path d="M94.9818 25.3152V33.1863H93.8402V25.3152H94.9818Z" fill="#292929"/>
<path d="M97.4978 25.3152V33.1863H96.3563V25.3152H97.4978Z" fill="#292929"/>
<path d="M101.556 33.1863V27.2829H102.66V28.2207H102.721C102.828 27.903 103.016 27.6532 103.286 27.4712C103.558 27.2868 103.866 27.1945 104.21 27.1945C104.281 27.1945 104.365 27.1971 104.462 27.2022C104.561 27.2073 104.639 27.2137 104.695 27.2214V28.3206C104.649 28.3078 104.567 28.2937 104.45 28.2783C104.333 28.2604 104.216 28.2514 104.099 28.2514C103.829 28.2514 103.589 28.3091 103.377 28.4244C103.169 28.5371 103.003 28.6947 102.881 28.8971C102.759 29.097 102.698 29.325 102.698 29.5812V33.1863H101.556Z" fill="#292929"/>
<path d="M107.839 33.3054C107.261 33.3054 106.763 33.1811 106.346 32.9326C105.931 32.6815 105.61 32.3292 105.384 31.8757C105.16 31.4196 105.048 30.8854 105.048 30.273C105.048 29.6683 105.16 29.1354 105.384 28.6742C105.61 28.213 105.926 27.853 106.331 27.5942C106.738 27.3355 107.214 27.2061 107.759 27.2061C108.089 27.2061 108.41 27.2611 108.721 27.3713C109.031 27.4815 109.31 27.6544 109.557 27.8902C109.804 28.1259 109.998 28.4321 110.141 28.8087C110.284 29.1828 110.355 29.6376 110.355 30.1731V30.5805H105.693V29.7196H109.236C109.236 29.4172 109.175 29.1495 109.053 28.9163C108.931 28.6806 108.759 28.4949 108.537 28.3591C108.319 28.2233 108.061 28.1554 107.766 28.1554C107.446 28.1554 107.166 28.2348 106.926 28.3936C106.69 28.5499 106.506 28.7549 106.376 29.0086C106.249 29.2597 106.186 29.5325 106.186 29.8272V30.4998C106.186 30.8944 106.254 31.23 106.392 31.5067C106.532 31.7834 106.726 31.9948 106.976 32.1409C107.225 32.2844 107.517 32.3561 107.85 32.3561C108.067 32.3561 108.264 32.3254 108.442 32.2639C108.62 32.1998 108.774 32.105 108.904 31.9795C109.034 31.8539 109.133 31.6989 109.202 31.5144L110.282 31.7104C110.196 32.0307 110.04 32.3113 109.816 32.5521C109.595 32.7904 109.316 32.9762 108.98 33.1094C108.647 33.2401 108.266 33.3054 107.839 33.3054Z" fill="#292929"/>
<path d="M115.855 28.7242L114.82 28.9086C114.777 28.7754 114.708 28.6486 114.614 28.5282C114.522 28.4077 114.397 28.3091 114.24 28.2322C114.082 28.1554 113.884 28.1169 113.648 28.1169C113.325 28.1169 113.055 28.1899 112.838 28.336C112.622 28.4795 112.514 28.6652 112.514 28.8933C112.514 29.0906 112.586 29.2494 112.731 29.3698C112.877 29.4903 113.111 29.5889 113.434 29.6658L114.366 29.881C114.905 30.0066 115.307 30.2 115.572 30.4613C115.837 30.7227 115.969 31.0622 115.969 31.4798C115.969 31.8334 115.867 32.1486 115.664 32.4253C115.463 32.6994 115.181 32.9147 114.82 33.071C114.461 33.2272 114.045 33.3054 113.571 33.3054C112.915 33.3054 112.379 33.1645 111.964 32.8826C111.549 32.5982 111.295 32.1947 111.2 31.672L112.304 31.5029C112.373 31.7924 112.514 32.0115 112.728 32.1601C112.941 32.3061 113.22 32.3792 113.564 32.3792C113.938 32.3792 114.237 32.301 114.461 32.1447C114.685 31.9859 114.797 31.7924 114.797 31.5644C114.797 31.3799 114.728 31.2249 114.591 31.0993C114.456 30.9738 114.248 30.879 113.968 30.8149L112.976 30.5959C112.429 30.4703 112.024 30.2705 111.762 29.9963C111.502 29.7221 111.372 29.375 111.372 28.9548C111.372 28.6063 111.469 28.3014 111.662 28.0401C111.856 27.7787 112.123 27.575 112.464 27.429C112.805 27.2804 113.196 27.2061 113.636 27.2061C114.27 27.2061 114.769 27.3444 115.133 27.6211C115.497 27.8953 115.737 28.263 115.855 28.7242Z" fill="#292929"/>
<path d="M119.8 27.2829V28.2053H116.597V27.2829H119.8ZM117.456 25.8686H118.598V31.4529C118.598 31.6758 118.631 31.8437 118.697 31.9564C118.763 32.0666 118.848 32.1422 118.953 32.1831C119.06 32.2216 119.176 32.2408 119.3 32.2408C119.392 32.2408 119.472 32.2344 119.541 32.2216C119.609 32.2088 119.663 32.1985 119.701 32.1908L119.907 33.1401C119.841 33.1658 119.747 33.1914 119.625 33.217C119.503 33.2452 119.35 33.2606 119.167 33.2631C118.866 33.2682 118.586 33.2144 118.327 33.1017C118.067 32.989 117.857 32.8147 117.697 32.579C117.536 32.3433 117.456 32.0474 117.456 31.6912V25.8686Z" fill="#292929"/>
<path d="M122.609 33.3169C122.237 33.3169 121.901 33.2477 121.601 33.1094C121.3 32.9685 121.062 32.7648 120.887 32.4983C120.714 32.2318 120.627 31.9051 120.627 31.5183C120.627 31.1852 120.691 30.911 120.818 30.6958C120.945 30.4806 121.117 30.3102 121.333 30.1846C121.55 30.0591 121.791 29.9643 122.059 29.9002C122.326 29.8362 122.598 29.7875 122.876 29.7542C123.227 29.7132 123.512 29.6799 123.731 29.6542C123.95 29.6261 124.109 29.5812 124.208 29.5197C124.307 29.4582 124.357 29.3583 124.357 29.22V29.1931C124.357 28.8574 124.263 28.5973 124.075 28.4129C123.889 28.2284 123.611 28.1361 123.242 28.1361C122.858 28.1361 122.555 28.222 122.334 28.3936C122.115 28.5627 121.963 28.7511 121.879 28.9586L120.806 28.7126C120.934 28.3539 121.12 28.0644 121.364 27.8441C121.611 27.6211 121.895 27.4597 122.215 27.3598C122.536 27.2573 122.873 27.2061 123.227 27.2061C123.461 27.2061 123.709 27.2342 123.972 27.2906C124.236 27.3444 124.483 27.4443 124.712 27.5904C124.944 27.7364 125.133 27.9453 125.281 28.2169C125.429 28.4859 125.502 28.8356 125.502 29.2661V33.1863H124.388V32.3792H124.342C124.268 32.5278 124.157 32.6738 124.01 32.8173C123.862 32.9608 123.672 33.0799 123.441 33.1747C123.209 33.2695 122.932 33.3169 122.609 33.3169ZM122.857 32.3945C123.172 32.3945 123.442 32.3318 123.666 32.2062C123.893 32.0807 124.064 31.9167 124.181 31.7143C124.301 31.5093 124.361 31.2902 124.361 31.0571V30.2961C124.32 30.3371 124.241 30.3755 124.124 30.4114C124.01 30.4447 123.879 30.4742 123.731 30.4998C123.583 30.5228 123.44 30.5446 123.3 30.5651C123.16 30.5831 123.042 30.5984 122.948 30.6112C122.727 30.6394 122.525 30.6868 122.341 30.7534C122.161 30.8201 122.015 30.9161 121.906 31.0417C121.799 31.1647 121.746 31.3287 121.746 31.5336C121.746 31.818 121.85 32.0333 122.059 32.1793C122.267 32.3228 122.533 32.3945 122.857 32.3945Z" fill="#292929"/>
<path d="M130.577 30.7381V27.2829H131.722V33.1863H130.599V32.1639H130.538C130.403 32.4791 130.187 32.7417 129.889 32.9518C129.594 33.1593 129.226 33.2631 128.786 33.2631C128.409 33.2631 128.076 33.1798 127.786 33.0133C127.498 32.8442 127.271 32.5944 127.106 32.2639C126.943 31.9333 126.862 31.5247 126.862 31.0378V27.2829H128.003V30.8995C128.003 31.3017 128.114 31.622 128.335 31.8603C128.557 32.0986 128.844 32.2177 129.198 32.2177C129.412 32.2177 129.625 32.1639 129.836 32.0563C130.05 31.9487 130.227 31.786 130.367 31.5682C130.509 31.3504 130.579 31.0737 130.577 30.7381Z" fill="#292929"/>
<path d="M133.094 33.1863V27.2829H134.198V28.2207H134.259C134.366 27.903 134.554 27.6532 134.824 27.4712C135.096 27.2868 135.404 27.1945 135.748 27.1945C135.819 27.1945 135.903 27.1971 136 27.2022C136.099 27.2073 136.177 27.2137 136.233 27.2214V28.3206C136.187 28.3078 136.106 28.2937 135.988 28.2783C135.871 28.2604 135.754 28.2514 135.637 28.2514C135.367 28.2514 135.127 28.3091 134.916 28.4244C134.707 28.5371 134.541 28.6947 134.419 28.8971C134.297 29.097 134.236 29.325 134.236 29.5812V33.1863H133.094Z" fill="#292929"/>
<path d="M138.714 33.3169C138.342 33.3169 138.006 33.2477 137.706 33.1094C137.405 32.9685 137.167 32.7648 136.992 32.4983C136.819 32.2318 136.732 31.9051 136.732 31.5183C136.732 31.1852 136.796 30.911 136.923 30.6958C137.05 30.4806 137.222 30.3102 137.438 30.1846C137.655 30.0591 137.897 29.9643 138.164 29.9002C138.431 29.8362 138.703 29.7875 138.981 29.7542C139.332 29.7132 139.617 29.6799 139.836 29.6542C140.055 29.6261 140.214 29.5812 140.313 29.5197C140.413 29.4582 140.462 29.3583 140.462 29.22V29.1931C140.462 28.8574 140.368 28.5973 140.18 28.4129C139.994 28.2284 139.716 28.1361 139.347 28.1361C138.963 28.1361 138.66 28.222 138.439 28.3936C138.22 28.5627 138.068 28.7511 137.984 28.9586L136.912 28.7126C137.039 28.3539 137.225 28.0644 137.469 27.8441C137.716 27.6211 138 27.4597 138.32 27.3598C138.641 27.2573 138.978 27.2061 139.332 27.2061C139.566 27.2061 139.814 27.2342 140.077 27.2906C140.341 27.3444 140.588 27.4443 140.817 27.5904C141.049 27.7364 141.238 27.9453 141.386 28.2169C141.534 28.4859 141.608 28.8356 141.608 29.2661V33.1863H140.493V32.3792H140.447C140.373 32.5278 140.262 32.6738 140.115 32.8173C139.967 32.9608 139.777 33.0799 139.546 33.1747C139.314 33.2695 139.037 33.3169 138.714 33.3169ZM138.962 32.3945C139.277 32.3945 139.547 32.3318 139.771 32.2062C139.998 32.0807 140.169 31.9167 140.287 31.7143C140.406 31.5093 140.466 31.2902 140.466 31.0571V30.2961C140.425 30.3371 140.346 30.3755 140.229 30.4114C140.115 30.4447 139.984 30.4742 139.836 30.4998C139.688 30.5228 139.545 30.5446 139.405 30.5651C139.265 30.5831 139.148 30.5984 139.053 30.6112C138.832 30.6394 138.63 30.6868 138.446 30.7534C138.266 30.8201 138.121 30.9161 138.011 31.0417C137.904 31.1647 137.851 31.3287 137.851 31.5336C137.851 31.818 137.955 32.0333 138.164 32.1793C138.372 32.3228 138.638 32.3945 138.962 32.3945Z" fill="#292929"/>
<path d="M144.108 29.6812V33.1863H142.967V27.2829H144.063V28.2438H144.135C144.27 27.9312 144.481 27.6801 144.769 27.4905C145.059 27.3009 145.424 27.2061 145.865 27.2061C146.264 27.2061 146.614 27.2906 146.914 27.4597C147.215 27.6263 147.448 27.8748 147.613 28.2053C147.779 28.5358 147.861 28.9445 147.861 29.4313V33.1863H146.72V29.5697C146.72 29.1418 146.609 28.8074 146.388 28.5666C146.166 28.3232 145.862 28.2015 145.475 28.2015C145.21 28.2015 144.975 28.2591 144.769 28.3744C144.565 28.4897 144.404 28.6588 144.284 28.8817C144.167 29.1021 144.108 29.3686 144.108 29.6812Z" fill="#292929"/>
<path d="M151.968 27.2829V28.2053H148.765V27.2829H151.968ZM149.624 25.8686H150.766V31.4529C150.766 31.6758 150.799 31.8437 150.865 31.9564C150.931 32.0666 151.017 32.1422 151.121 32.1831C151.228 32.2216 151.344 32.2408 151.468 32.2408C151.56 32.2408 151.64 32.2344 151.709 32.2216C151.778 32.2088 151.831 32.1985 151.869 32.1908L152.075 33.1401C152.009 33.1658 151.915 33.1914 151.793 33.217C151.671 33.2452 151.518 33.2606 151.335 33.2631C151.034 33.2682 150.754 33.2144 150.495 33.1017C150.235 32.989 150.025 32.8147 149.865 32.579C149.704 32.3433 149.624 32.0474 149.624 31.6912V25.8686Z" fill="#292929"/>
<path d="M157.37 28.7242L156.335 28.9086C156.292 28.7754 156.223 28.6486 156.129 28.5282C156.037 28.4077 155.913 28.3091 155.755 28.2322C155.597 28.1554 155.4 28.1169 155.163 28.1169C154.84 28.1169 154.57 28.1899 154.354 28.336C154.137 28.4795 154.029 28.6652 154.029 28.8933C154.029 29.0906 154.102 29.2494 154.247 29.3698C154.392 29.4903 154.626 29.5889 154.949 29.6658L155.881 29.881C156.421 30.0066 156.823 30.2 157.087 30.4613C157.352 30.7227 157.484 31.0622 157.484 31.4798C157.484 31.8334 157.383 32.1486 157.179 32.4253C156.978 32.6994 156.697 32.9147 156.335 33.071C155.976 33.2272 155.56 33.3054 155.087 33.3054C154.43 33.3054 153.894 33.1645 153.479 32.8826C153.065 32.5982 152.81 32.1947 152.716 31.672L153.819 31.5029C153.888 31.7924 154.029 32.0115 154.243 32.1601C154.457 32.3061 154.736 32.3792 155.079 32.3792C155.453 32.3792 155.752 32.301 155.976 32.1447C156.2 31.9859 156.312 31.7924 156.312 31.5644C156.312 31.3799 156.244 31.2249 156.106 31.0993C155.971 30.9738 155.764 30.879 155.484 30.8149L154.491 30.5959C153.944 30.4703 153.539 30.2705 153.277 29.9963C153.018 29.7221 152.888 29.375 152.888 28.9548C152.888 28.6063 152.984 28.3014 153.178 28.0401C153.371 27.7787 153.639 27.575 153.98 27.429C154.321 27.2804 154.711 27.2061 155.152 27.2061C155.786 27.2061 156.284 27.3444 156.648 27.6211C157.012 27.8953 157.253 28.263 157.37 28.7242Z" fill="#292929"/>
<path d="M162.534 33.1863L160.808 27.2829H161.988L163.137 31.6182H163.194L164.347 27.2829H165.527L166.672 31.599H166.73L167.871 27.2829H169.051L167.329 33.1863H166.165L164.973 28.924H164.886L163.694 33.1863H162.534Z" fill="#292929"/>
<path d="M172.265 33.3054C171.715 33.3054 171.235 33.1786 170.825 32.9249C170.416 32.6712 170.097 32.3164 169.871 31.8603C169.644 31.4042 169.531 30.8713 169.531 30.2615C169.531 29.6491 169.644 29.1136 169.871 28.655C170.097 28.1964 170.416 27.8402 170.825 27.5865C171.235 27.3329 171.715 27.2061 172.265 27.2061C172.814 27.2061 173.294 27.3329 173.704 27.5865C174.114 27.8402 174.432 28.1964 174.659 28.655C174.885 29.1136 174.998 29.6491 174.998 30.2615C174.998 30.8713 174.885 31.4042 174.659 31.8603C174.432 32.3164 174.114 32.6712 173.704 32.9249C173.294 33.1786 172.814 33.3054 172.265 33.3054ZM172.269 32.3407C172.625 32.3407 172.92 32.2459 173.154 32.0563C173.388 31.8667 173.562 31.6143 173.674 31.2992C173.788 30.984 173.845 30.6369 173.845 30.2576C173.845 29.881 173.788 29.5351 173.674 29.22C173.562 28.9022 173.388 28.6473 173.154 28.4551C172.92 28.263 172.625 28.1669 172.269 28.1669C171.91 28.1669 171.612 28.263 171.375 28.4551C171.141 28.6473 170.967 28.9022 170.852 29.22C170.74 29.5351 170.684 29.881 170.684 30.2576C170.684 30.6369 170.74 30.984 170.852 31.2992C170.967 31.6143 171.141 31.8667 171.375 32.0563C171.612 32.2459 171.91 32.3407 172.269 32.3407Z" fill="#292929"/>
<path d="M176.111 33.1863V27.2829H177.215V28.2207H177.276C177.383 27.903 177.571 27.6532 177.841 27.4712C178.113 27.2868 178.421 27.1945 178.765 27.1945C178.836 27.1945 178.92 27.1971 179.017 27.2022C179.116 27.2073 179.194 27.2137 179.25 27.2214V28.3206C179.204 28.3078 179.122 28.2937 179.005 28.2783C178.888 28.2604 178.771 28.2514 178.654 28.2514C178.384 28.2514 178.144 28.3091 177.932 28.4244C177.724 28.5371 177.558 28.6947 177.436 28.8971C177.314 29.097 177.253 29.325 177.253 29.5812V33.1863H176.111Z" fill="#292929"/>
<path d="M181.218 25.3152V33.1863H180.076V25.3152H181.218Z" fill="#292929"/>
<path d="M184.788 33.3016C184.314 33.3016 183.892 33.1798 183.52 32.9364C183.151 32.6905 182.861 32.3407 182.65 31.8872C182.441 31.4311 182.337 30.8841 182.337 30.2461C182.337 29.6081 182.442 29.0624 182.653 28.6089C182.867 28.1554 183.16 27.8082 183.532 27.5673C183.903 27.3265 184.324 27.2061 184.795 27.2061C185.159 27.2061 185.452 27.2676 185.673 27.3905C185.897 27.511 186.07 27.6519 186.193 27.8133C186.317 27.9747 186.414 28.1169 186.483 28.2399H186.551V25.3152H187.693V33.1863H186.578V32.2677H186.483C186.414 32.3932 186.315 32.5367 186.185 32.6982C186.058 32.8596 185.882 33.0005 185.658 33.1209C185.434 33.2413 185.144 33.3016 184.788 33.3016ZM185.04 32.3215C185.368 32.3215 185.645 32.2344 185.872 32.0602C186.101 31.8834 186.274 31.6387 186.391 31.3261C186.511 31.0135 186.571 30.6497 186.571 30.2346C186.571 29.8246 186.512 29.4659 186.395 29.1585C186.278 28.851 186.106 28.6114 185.88 28.4398C185.653 28.2681 185.373 28.1823 185.04 28.1823C184.696 28.1823 184.41 28.2719 184.181 28.4513C183.951 28.6306 183.778 28.8753 183.661 29.1854C183.547 29.4954 183.49 29.8451 183.49 30.2346C183.49 30.6292 183.548 30.984 183.665 31.2992C183.782 31.6143 183.955 31.8642 184.184 32.0486C184.416 32.2305 184.701 32.3215 185.04 32.3215Z" fill="#292929"/>
<path d="M190.432 33.1863L188.707 27.2829H189.886L191.036 31.6182H191.093L192.246 27.2829H193.426L194.571 31.599H194.628L195.77 27.2829H196.95L195.228 33.1863H194.063L192.872 28.924H192.784L191.593 33.1863H190.432Z" fill="#292929"/>
<path d="M197.872 33.1863V27.2829H199.013V33.1863H197.872ZM198.448 26.3721C198.25 26.3721 198.079 26.3054 197.937 26.1722C197.797 26.0364 197.727 25.875 197.727 25.688C197.727 25.4983 197.797 25.3369 197.937 25.2037C198.079 25.0679 198.25 25 198.448 25C198.647 25 198.816 25.0679 198.956 25.2037C199.099 25.3369 199.17 25.4983 199.17 25.688C199.17 25.875 199.099 26.0364 198.956 26.1722C198.816 26.3054 198.647 26.3721 198.448 26.3721Z" fill="#292929"/>
<path d="M202.583 33.3016C202.11 33.3016 201.687 33.1798 201.316 32.9364C200.946 32.6905 200.656 32.3407 200.445 31.8872C200.236 31.4311 200.132 30.8841 200.132 30.2461C200.132 29.6081 200.238 29.0624 200.449 28.6089C200.663 28.1554 200.955 27.8082 201.327 27.5673C201.699 27.3265 202.12 27.2061 202.591 27.2061C202.955 27.2061 203.247 27.2676 203.469 27.3905C203.693 27.511 203.866 27.6519 203.988 27.8133C204.113 27.9747 204.209 28.1169 204.278 28.2399H204.347V25.3152H205.488V33.1863H204.374V32.2677H204.278C204.209 32.3932 204.11 32.5367 203.98 32.6982C203.853 32.8596 203.678 33.0005 203.454 33.1209C203.23 33.2413 202.939 33.3016 202.583 33.3016ZM202.835 32.3215C203.163 32.3215 203.441 32.2344 203.667 32.0602C203.896 31.8834 204.069 31.6387 204.187 31.3261C204.306 31.0135 204.366 30.6497 204.366 30.2346C204.366 29.8246 204.307 29.4659 204.19 29.1585C204.073 28.851 203.902 28.6114 203.675 28.4398C203.448 28.2681 203.168 28.1823 202.835 28.1823C202.491 28.1823 202.205 28.2719 201.976 28.4513C201.747 28.6306 201.574 28.8753 201.457 29.1854C201.342 29.4954 201.285 29.8451 201.285 30.2346C201.285 30.6292 201.344 30.984 201.461 31.2992C201.578 31.6143 201.751 31.8642 201.98 32.0486C202.211 32.2305 202.497 32.3215 202.835 32.3215Z" fill="#292929"/>
<path d="M209.484 33.3054C208.906 33.3054 208.409 33.1811 207.991 32.9326C207.576 32.6815 207.256 32.3292 207.029 31.8757C206.805 31.4196 206.693 30.8854 206.693 30.273C206.693 29.6683 206.805 29.1354 207.029 28.6742C207.256 28.213 207.571 27.853 207.976 27.5942C208.383 27.3355 208.859 27.2061 209.404 27.2061C209.735 27.2061 210.055 27.2611 210.366 27.3713C210.676 27.4815 210.955 27.6544 211.202 27.8902C211.449 28.1259 211.644 28.4321 211.786 28.8087C211.929 29.1828 212 29.6376 212 30.1731V30.5805H207.338V29.7196H210.881C210.881 29.4172 210.82 29.1495 210.698 28.9163C210.576 28.6806 210.404 28.4949 210.183 28.3591C209.964 28.2233 209.707 28.1554 209.411 28.1554C209.091 28.1554 208.811 28.2348 208.572 28.3936C208.335 28.5499 208.152 28.7549 208.022 29.0086C207.894 29.2597 207.831 29.5325 207.831 29.8272V30.4998C207.831 30.8944 207.9 31.23 208.037 31.5067C208.177 31.7834 208.372 31.9948 208.621 32.1409C208.871 32.2844 209.162 32.3561 209.495 32.3561C209.712 32.3561 209.909 32.3254 210.087 32.2639C210.265 32.1998 210.419 32.105 210.549 31.9795C210.679 31.8539 210.778 31.6989 210.847 31.5144L211.927 31.7104C211.841 32.0307 211.686 32.3113 211.462 32.5521C211.24 32.7904 210.962 32.9762 210.626 33.1094C210.292 33.2401 209.912 33.3054 209.484 33.3054Z" fill="#292929"/>
</g>
</g>
</svg>
